<svg width="55" height="56" viewBox="0 0 55 56" fill="none" xmlns="http://www.w3.org/2000/svg">
<path d="M17.3809 34.4614C17.6093 34.5568 17.8663 34.5574 18.0952 34.4633C18.3241 34.3691 18.5064 34.1878 18.6016 33.9594L19.9177 30.8001H24.8961L26.2121 33.9594C26.4105 34.4352 26.9571 34.6599 27.4329 34.4615C27.9087 34.2631 28.1334 33.7165 27.935 33.2408L23.2684 22.0407C23.1234 21.6931 22.7837 21.4666 22.407 21.4666C22.0303 21.4666 21.6905 21.6931 21.5455 22.0407L16.8789 33.2408C16.7835 33.4692 16.7829 33.7262 16.877 33.9551C16.9712 34.184 17.1523 34.3662 17.3809 34.4614ZM22.4069 24.8267L24.1177 28.9334H20.696L22.4069 24.8267Z" fill="#0264FA"/>
<path fill-rule="evenodd" clip-rule="evenodd" d="M29.8735 32.6667C29.358 32.6667 28.9402 33.0845 28.9402 33.6C28.9402 34.1155 29.358 34.5334 29.8735 34.5334H35.4735C35.989 34.5334 36.4069 34.1155 36.4069 33.6C36.4069 33.0845 35.989 32.6667 35.4735 32.6667H33.6068V23.3334H35.4735C35.989 23.3334 36.4069 22.9155 36.4069 22.4C36.4069 21.8845 35.989 21.4667 35.4735 21.4667H29.8735C29.358 21.4667 28.9402 21.8845 28.9402 22.4C28.9402 22.9155 29.358 23.3334 29.8735 23.3334H31.7402V32.6667H29.8735Z" fill="#0264FA"/>
<path d="M0.00673882 41.0667C0.00673882 43.1286 1.67824 44.8 3.74005 44.8C4.20769 44.7982 4.67073 44.7077 5.10457 44.533C7.31095 46.2224 10.4246 47.1035 14.2512 47.1035C14.828 47.1035 15.4273 47.0764 16.0348 47.0372C18.7452 52.5756 22.6559 56 27.0733 56C31.4908 56 35.4015 52.5756 38.1128 47.04C38.7213 47.0792 39.3196 47.1062 39.8964 47.1062C43.723 47.1062 46.8366 46.2251 49.043 44.5358C49.4768 44.7093 49.9395 44.799 50.4066 44.8C52.0544 44.7953 53.5043 43.7108 53.9742 42.1314C54.4442 40.552 53.8231 38.8513 52.4459 37.9465C52.5766 34.9412 51.4146 31.5307 49.0496 28C51.4146 24.4701 52.5766 21.0597 52.4459 18.0534C54.0595 17.0121 54.617 14.9148 53.7334 13.2097C52.8498 11.5047 50.8148 10.7508 49.0337 11.4687C46.4978 9.52833 42.7533 8.66874 38.1136 8.97113C35.4053 3.42816 31.4928 0 27.0734 0C22.654 0 18.7415 3.42816 16.0302 8.97122C11.3925 8.67067 7.64981 9.53118 5.11017 11.4688C3.33019 10.7567 1.30035 11.5117 0.418254 13.2139C-0.46384 14.9161 0.0897768 17.0098 1.6979 18.0535C1.56912 21.0579 2.73202 24.4683 5.09713 28C2.73202 31.5308 1.56912 34.9412 1.70075 37.9466C0.645139 38.6336 0.00793295 39.8072 0.00673882 41.0667ZM1.87344 41.0667C1.87344 40.0358 2.70915 39.2 3.74014 39.2C4.77113 39.2 5.60684 40.0357 5.60684 41.0667C5.60684 42.0977 4.77113 42.9334 3.74014 42.9334C3.24503 42.9334 2.77023 42.7367 2.42017 42.3866C2.0701 42.0366 1.87344 41.5618 1.87344 41.0667ZM17.1885 10.9387C19.6732 11.2362 22.1212 11.7857 24.4947 12.5786C22.8241 13.3242 21.1926 14.1547 19.6068 15.0669C18.0154 15.9854 16.4739 16.9876 14.9887 18.0694C15.478 15.624 16.2151 13.2347 17.1885 10.9387ZM39.1573 18.0694C37.6725 16.9875 36.1313 15.9852 34.5401 15.0669C32.9565 14.1558 31.3279 13.3253 29.6606 12.5786C32.0316 11.7861 34.477 11.2367 36.9593 10.9387C37.9321 13.2348 38.6685 15.624 39.1573 18.0694ZM36.9583 45.0614C34.4736 44.7639 32.0257 44.2144 29.6522 43.4215C31.3228 42.6759 32.9542 41.8454 34.5401 40.9332C36.1315 40.0147 37.673 39.0125 39.1582 37.9307C38.6689 40.3761 37.9318 42.7653 36.9583 45.0614ZM33.6068 16.6843C35.7116 17.8956 37.7237 19.261 39.6268 20.7695C39.97 23.1644 40.1415 25.5807 40.1401 28C40.1418 30.4194 39.9706 32.8357 39.6277 35.2306C37.7242 36.739 35.7118 38.1045 33.6068 39.3158C31.5085 40.5294 29.325 41.5893 27.0734 42.4872C24.8218 41.5889 22.6383 40.5283 20.5401 39.3139C18.4353 38.1026 16.4232 36.7371 14.5201 35.2287C13.8369 30.4325 13.8369 25.5637 14.5201 20.7676C16.4233 19.2598 18.4355 17.895 20.5401 16.6842C22.6401 15.4697 24.8255 14.4091 27.079 13.5108C29.3288 14.4096 31.5105 15.4701 33.6068 16.6843ZM41.7268 22.5335C43.5883 24.1815 45.279 26.0129 46.7734 28C45.2812 29.9868 43.5926 31.8182 41.7334 33.4666C41.9166 31.6502 42.0079 29.8257 42.0068 28C42.0074 26.1744 41.9155 24.3499 41.7316 22.5335H41.7268ZM12.4201 33.4666C10.5581 31.8191 8.86727 29.9875 7.37351 28C8.86571 26.0133 10.5542 24.1819 12.4135 22.5335C12.0463 26.1686 12.0463 29.8315 12.4135 33.4666H12.4201ZM19.6123 40.9332C21.1958 41.8443 22.8244 42.6748 24.4918 43.4215C22.1207 44.214 19.6753 44.7634 17.1931 45.0614C16.22 42.7653 15.4832 40.3761 14.9942 37.9307C16.4775 39.0125 18.0172 40.0147 19.6067 40.9332H19.6123ZM27.0734 54.1334C23.5678 54.1334 20.3824 51.353 18.0331 46.8431C21.1264 46.4046 24.1595 45.6142 27.0734 44.4874C29.9885 45.6147 33.0229 46.4051 36.1174 46.8431C33.7636 51.353 30.579 54.1334 27.0734 54.1334ZM50.4068 42.9334C49.3759 42.9334 48.5401 42.0977 48.5401 41.0667C48.5401 40.0357 49.3758 39.2 50.4068 39.2C51.4378 39.2 52.2735 40.0357 52.2735 41.0667C52.2735 42.0977 51.4377 42.9334 50.4068 42.9334ZM50.6027 37.3529C50.5365 37.3529 50.474 37.3334 50.4067 37.3334C48.3448 37.3334 46.6734 39.0049 46.6734 41.0667C46.6769 41.9013 46.9628 42.7102 47.4845 43.3617C45.4517 44.7029 42.4846 45.3404 38.9305 45.2069C40.0877 42.316 40.9079 39.3013 41.3749 36.2226C43.7889 34.2788 45.9737 32.0662 47.8867 29.6277C49.4626 31.9157 50.4002 34.5823 50.6027 37.3529ZM52.2734 14.9333C52.2734 15.9642 51.4377 16.8 50.4067 16.8C49.3757 16.8 48.54 15.9643 48.54 14.9333C48.54 13.9023 49.3757 13.0666 50.4067 13.0666C51.4377 13.0666 52.2734 13.9024 52.2734 14.9333ZM47.4845 12.6383C46.9629 13.2898 46.677 14.0987 46.6734 14.9333C46.6734 16.9952 48.3449 18.6666 50.4067 18.6666C50.474 18.6666 50.5364 18.6507 50.6027 18.6471C50.4004 21.4178 49.4629 24.0845 47.8867 26.3723C45.9733 23.9338 43.7883 21.7211 41.374 19.7774C40.9063 16.6985 40.0851 13.6838 38.9267 10.7931C42.4838 10.6587 45.4527 11.2933 47.4845 12.6383ZM27.0734 1.8667C30.579 1.8667 33.7645 4.64709 36.1137 9.15695C33.022 9.59584 29.9905 10.3862 27.0781 11.5127C24.1631 10.3853 21.1287 9.59502 18.0341 9.15695C20.3833 4.64709 23.5678 1.8667 27.0734 1.8667ZM3.74005 13.0667C4.77095 13.0667 5.60675 13.9024 5.60675 14.9334C5.60675 15.9644 4.77104 16.8001 3.74005 16.8001C2.70905 16.8001 1.87335 15.9644 1.87335 14.9334C1.87335 13.9024 2.70915 13.0667 3.74005 13.0667ZM3.54412 18.6471C3.61035 18.6471 3.6729 18.6666 3.74014 18.6666C5.80203 18.6666 7.47345 16.9951 7.47345 14.9333C7.46996 14.0987 7.1841 13.2897 6.66236 12.6383C8.69422 11.2971 11.6613 10.6605 15.2164 10.7931C14.0593 13.684 13.239 16.6987 12.772 19.7774C10.3582 21.7211 8.17348 23.9334 6.26012 26.3713C4.68368 24.084 3.74611 21.4176 3.54412 18.6471ZM6.26012 29.6287C8.1744 32.0664 10.3597 34.2787 12.7738 36.2226C13.2414 39.3017 14.0622 42.3167 15.2201 45.2078C11.6679 45.3422 8.6989 44.7029 6.66612 43.3617C7.18649 42.7097 7.47097 41.9008 7.47345 41.0667C7.47345 39.0048 5.80194 37.3334 3.74014 37.3334C3.6729 37.3334 3.61044 37.3502 3.54412 37.3529C3.74648 34.5825 4.68396 31.9161 6.26012 29.6287Z" fill="#0264FA"/>
</svg>
