<svg width="63" height="44" viewBox="0 0 63 44" fill="none" xmlns="http://www.w3.org/2000/svg">
<path d="M57.0186 1H5.19857C4.63326 1.01276 4.07604 1.13708 3.55886 1.36582C3.04168 1.59456 2.57472 1.92322 2.18478 2.33295C1.79484 2.74268 1.48958 3.22541 1.28653 3.75345C1.08347 4.28149 0.986603 4.84445 1.00149 5.41004V38.9179C0.994454 39.4622 1.09976 40.0022 1.31081 40.5039C1.52186 41.0057 1.83412 41.4585 2.22806 41.834C2.622 42.2095 3.08914 42.4996 3.60026 42.6862C4.11139 42.8728 4.65549 42.9519 5.19855 42.9185H57.0186C57.5622 42.9522 58.1068 42.8735 58.6186 42.6871C59.1304 42.5008 59.5982 42.2108 59.9929 41.8353C60.3876 41.4599 60.7006 41.007 60.9125 40.505C61.1244 40.0031 61.2305 39.4627 61.2243 38.9179V5.41004C61.2384 4.84393 61.1408 4.2806 60.9369 3.75233C60.7331 3.22406 60.427 2.74125 60.0363 2.33155C59.6456 1.92186 59.1779 1.59335 58.6601 1.36486C58.1423 1.13636 57.5844 1.01238 57.0186 1Z" stroke="#0264FA" stroke-width="2" stroke-linecap="round" stroke-linejoin="round"/>
<path d="M31.1462 8.85291H45.5473V23.2624" stroke="#0264FA" stroke-width="2" stroke-linecap="round" stroke-linejoin="round"/>
<path d="M31.1457 35.0518H16.7446V20.6423" stroke="#0264FA" stroke-width="2" stroke-linecap="round" stroke-linejoin="round"/>
<path d="M16.7446 35.0519L45.5468 8.85278" stroke="#0264FA" stroke-width="2" stroke-linecap="round" stroke-linejoin="round"/>
</svg>
