<svg width="54" height="54" viewBox="0 0 54 54" fill="none" xmlns="http://www.w3.org/2000/svg">
<path d="M51.9093 20.0394C51.9642 19.6854 51.9921 19.3276 51.993 18.9693C51.9914 17.2728 51.3676 15.6357 50.2396 14.3684C49.1116 13.1011 47.558 12.2916 45.873 12.0933C46.0353 11.1209 45.9883 10.125 45.7353 9.17206C45.4824 8.21915 45.0291 7.33113 44.4059 6.56718C43.7826 5.80324 43.0037 5.18095 42.121 4.74178C41.2383 4.30261 40.2721 4.05667 39.2868 4.02035C38.7544 2.8686 37.916 1.88513 36.863 1.17717C35.81 0.469206 34.5829 0.063933 33.3154 0.00553393C32.0479 -0.0528652 30.7886 0.237852 29.675 0.845987C28.5614 1.45412 27.6361 2.35633 27 3.45425C26.3641 2.35586 25.4388 1.45321 24.3249 0.844748C23.2111 0.23629 21.9516 -0.0546027 20.6837 0.00380309C19.4159 0.0622089 18.1884 0.46767 17.1353 1.17596C16.0821 1.88424 15.2437 2.86815 14.7114 4.02035C13.7262 4.05667 12.76 4.30261 11.8773 4.74178C10.9946 5.18095 10.2156 5.80324 9.59239 6.56718C8.96914 7.33113 8.51592 8.21915 8.26293 9.17206C8.00994 10.125 7.963 11.1209 8.12523 12.0933C6.4403 12.2916 4.88664 13.1011 3.75868 14.3684C2.63072 15.6357 2.00682 17.2728 2.00523 18.9693C2.00613 19.3276 2.03411 19.6854 2.08893 20.0394C0.853104 21.2426 0.112336 22.8648 0.0123994 24.5867C-0.087537 26.3086 0.460595 28.0056 1.54893 29.3437C0.538685 30.6957 -0.0049036 32.3394 3.33331e-05 34.0272C0.0049722 35.4376 0.385005 36.8212 1.10114 38.0361C1.81728 39.2511 2.84375 40.2537 4.07523 40.9411C4.26991 42.6252 4.99758 44.203 6.15209 45.4445C7.3066 46.6859 8.82757 47.526 10.4931 47.8423C11.0704 49.6349 12.2026 51.1976 13.7263 52.3045C15.2499 53.4114 17.0861 54.0052 18.9693 54.0001C20.6084 54.04 22.2264 53.6251 23.644 52.8014C25.0615 51.9776 26.2232 50.7773 27 49.3336C27.8514 50.8691 29.1306 52.1243 30.6821 52.9463C32.2336 53.7683 33.9905 54.1218 35.7392 53.9638C37.4879 53.8059 39.153 53.1432 40.532 52.0564C41.911 50.9696 42.9446 49.5056 43.5069 47.8423C45.1725 47.526 46.6935 46.6859 47.848 45.4445C49.0025 44.203 49.7302 42.6252 49.9248 40.9411C51.1563 40.2537 52.1828 39.2511 52.8989 38.0361C53.6151 36.8212 53.9951 35.4376 54 34.0272C54.005 32.341 53.4624 30.6987 52.4538 29.3473C53.5422 28.0092 54.0903 26.3122 53.9904 24.5903C53.8904 22.8684 53.1497 21.2462 51.9138 20.043L51.9093 20.0394ZM18.9693 52.2001C17.3834 52.2053 15.8416 51.6778 14.5912 50.7022C13.3408 49.7267 12.4542 48.3595 12.0735 46.8199C12.029 46.6407 11.9304 46.4795 11.7911 46.3583C11.6518 46.2371 11.4786 46.1616 11.295 46.1422C9.84206 45.9836 8.49347 45.3113 7.49221 44.2466C6.49095 43.1818 5.90284 41.7944 5.83383 40.3345C5.82731 40.1699 5.77578 40.0104 5.68485 39.8731C5.59392 39.7358 5.46708 39.6261 5.31813 39.556C4.26348 39.0686 3.37115 38.2883 2.74741 37.3081C2.12367 36.3279 1.79483 35.1891 1.80003 34.0272C1.79304 32.5051 2.36695 31.0377 3.40473 29.9242C3.48566 29.8376 3.54871 29.736 3.59027 29.625C3.63182 29.5141 3.65106 29.396 3.64688 29.2776C3.6427 29.1592 3.61518 29.0428 3.5659 28.935C3.51663 28.8273 3.44657 28.7304 3.35973 28.6497C2.84386 28.1535 2.43856 27.554 2.17036 26.8903C1.90216 26.2267 1.77709 25.5138 1.80334 24.7985C1.82959 24.0832 2.00657 23.3815 2.3227 22.7393C2.63882 22.0971 3.08697 21.5288 3.63783 21.0717C3.76635 20.9668 3.86337 20.8284 3.91817 20.6718C3.97296 20.5152 3.9834 20.3465 3.94833 20.1843C3.85739 19.7857 3.81001 19.3783 3.80703 18.9693C3.80894 17.6111 4.3494 16.3091 5.30989 15.3488C6.27038 14.3884 7.57251 13.8482 8.93073 13.8465C9.00134 13.8433 9.07209 13.846 9.14223 13.8546C9.29916 13.8814 9.46036 13.866 9.60941 13.8101C9.75845 13.7542 9.89 13.6598 9.99064 13.5364C10.0913 13.4131 10.1574 13.2653 10.1823 13.1081C10.2072 12.9508 10.1899 12.7898 10.1322 12.6414C9.92738 12.0974 9.82545 11.52 9.83163 10.9386C9.83354 9.58058 10.3739 8.27868 11.3342 7.31838C12.2945 6.35809 13.5964 5.81775 14.9544 5.81585C15.0274 5.81315 15.1005 5.81586 15.1731 5.82395C15.3828 5.85764 15.5975 5.81615 15.7795 5.70679C15.9615 5.59743 16.099 5.42726 16.1676 5.22635C16.512 4.22508 17.1608 3.35651 18.0232 2.74216C18.8855 2.1278 19.9184 1.79841 20.9772 1.80005C22.2445 1.79419 23.4691 2.25759 24.4149 3.10094C25.3608 3.9443 25.9611 5.10792 26.1 6.36755V45.8659C25.92 49.4785 22.86 52.2001 18.9693 52.2001ZM50.5953 29.9242C51.6331 31.0377 52.207 32.5051 52.2 34.0272C52.2052 35.1891 51.8764 36.3279 51.2527 37.3081C50.6289 38.2883 49.7366 39.0686 48.6819 39.556C48.533 39.6261 48.4062 39.7358 48.3152 39.8731C48.2243 40.0104 48.1728 40.1699 48.1662 40.3345C48.0972 41.7944 47.5091 43.1818 46.5079 44.2466C45.5066 45.3113 44.158 45.9836 42.705 46.1422C42.5214 46.1616 42.3483 46.2371 42.209 46.3583C42.0697 46.4795 41.9711 46.6407 41.9265 46.8199C41.5459 48.3595 40.6593 49.7267 39.4089 50.7022C38.1585 51.6778 36.6167 52.2053 35.0307 52.2001C31.14 52.2001 28.08 49.4785 27.9 45.8659V41.4001H31.5C31.7387 41.4001 31.9677 41.4949 32.1364 41.6637C32.3052 41.8324 32.4 42.0614 32.4 42.3001V43.3657C31.7995 43.578 31.2934 43.9957 30.9712 44.5451C30.6489 45.0945 30.5312 45.7401 30.6389 46.3678C30.7466 46.9956 31.0728 47.565 31.5597 47.9755C32.0467 48.3861 32.6631 48.6112 33.3 48.6112C33.937 48.6112 34.5534 48.3861 35.0403 47.9755C35.5273 47.565 35.8535 46.9956 35.9612 46.3678C36.0689 45.7401 35.9512 45.0945 35.6289 44.5451C35.3066 43.9957 34.8005 43.578 34.2 43.3657V42.3001C34.2 41.584 33.9156 40.8972 33.4092 40.3909C32.9029 39.8845 32.2161 39.6001 31.5 39.6001H27.9V36.0001H37.0656C37.2779 36.6005 37.6957 37.1067 38.2451 37.4289C38.7944 37.7512 39.4401 37.8689 40.0678 37.7612C40.6955 37.6535 41.265 37.3273 41.6755 36.8403C42.0861 36.3534 42.3112 35.737 42.3112 35.1001C42.3112 34.4631 42.0861 33.8467 41.6755 33.3598C41.265 32.8728 40.6955 32.5466 40.0678 32.4389C39.4401 32.3312 38.7944 32.4489 38.2451 32.7712C37.6957 33.0935 37.2779 33.5996 37.0656 34.2001H27.9V30.6001H36C36.2387 30.6001 36.4677 30.5052 36.6364 30.3364C36.8052 30.1677 36.9 29.9387 36.9 29.7001C36.9 29.4614 36.8052 29.2324 36.6364 29.0637C36.4677 28.8949 36.2387 28.8001 36 28.8001H27.9V25.2H41.5656C41.7779 25.8005 42.1957 26.3066 42.7451 26.6289C43.2944 26.9512 43.9401 27.0689 44.5678 26.9612C45.1955 26.8535 45.765 26.5273 46.1755 26.0403C46.5861 25.5534 46.8112 24.937 46.8112 24.3C46.8112 23.6631 46.5861 23.0467 46.1755 22.5598C45.765 22.0728 45.1955 21.7466 44.5678 21.6389C43.9401 21.5312 43.2944 21.6489 42.7451 21.9712C42.1957 22.2934 41.7779 22.7996 41.5656 23.4H27.9V19.8H37.0656C37.2779 20.4005 37.6957 20.9066 38.2451 21.2289C38.7944 21.5512 39.4401 21.6689 40.0678 21.5612C40.6955 21.4535 41.265 21.1273 41.6755 20.6403C42.0861 20.1534 42.3112 19.537 42.3112 18.9C42.3112 18.2631 42.0861 17.6467 41.6755 17.1598C41.265 16.6728 40.6955 16.3466 40.0678 16.2389C39.4401 16.1312 38.7944 16.2489 38.2451 16.5712C37.6957 16.8934 37.2779 17.3996 37.0656 18H27.9V14.4H31.5C32.2161 14.4 32.9029 14.1156 33.4092 13.6092C33.9156 13.1029 34.2 12.4161 34.2 11.7V10.6344C34.8005 10.4221 35.3066 10.0044 35.6289 9.45502C35.9512 8.90564 36.0689 8.26003 35.9612 7.63229C35.8535 7.00454 35.5273 6.43508 35.0403 6.02455C34.5534 5.61402 33.937 5.38886 33.3 5.38886C32.6631 5.38886 32.0467 5.61402 31.5597 6.02455C31.0728 6.43508 30.7466 7.00454 30.6389 7.63229C30.5312 8.26003 30.6489 8.90564 30.9712 9.45502C31.2934 10.0044 31.7995 10.4221 32.4 10.6344V11.7C32.4 11.9387 32.3052 12.1677 32.1364 12.3364C31.9677 12.5052 31.7387 12.6 31.5 12.6H27.9V6.36755C28.039 5.10792 28.6392 3.9443 29.5851 3.10094C30.531 2.25759 31.7556 1.79419 33.0228 1.80005C34.0818 1.79822 35.1149 2.12753 35.9775 2.74189C36.84 3.35626 37.4889 4.22493 37.8333 5.22635C37.902 5.42726 38.0395 5.59743 38.2214 5.70679C38.4034 5.81615 38.6182 5.85764 38.8278 5.82395C38.8719 5.81734 38.9165 5.81433 38.961 5.81495C39.64 5.80734 40.3138 5.93406 40.9436 6.18782C41.5734 6.44157 42.1468 6.81735 42.6309 7.29353C43.1149 7.76971 43.5 8.3369 43.7641 8.96248C44.0281 9.58805 44.1658 10.2596 44.1693 10.9386C44.1755 11.52 44.0736 12.0974 43.8687 12.6414C43.8111 12.7898 43.7938 12.9508 43.8187 13.1081C43.8436 13.2653 43.9097 13.4131 44.0103 13.5364C44.111 13.6598 44.2425 13.7542 44.3916 13.8101C44.5406 13.866 44.7018 13.8814 44.8587 13.8546C44.9288 13.8451 44.9996 13.8424 45.0702 13.8465C46.4285 13.8482 47.7306 14.3884 48.6911 15.3488C49.6516 16.3091 50.192 17.6111 50.1939 18.9693C50.191 19.3783 50.1436 19.7857 50.0526 20.1843C50.0176 20.3465 50.028 20.5152 50.0828 20.6718C50.1376 20.8284 50.2346 20.9668 50.3631 21.0717C50.914 21.5288 51.3622 22.0971 51.6783 22.7393C51.9944 23.3815 52.1714 24.0832 52.1976 24.7985C52.2239 25.5138 52.0988 26.2267 51.8306 26.8903C51.5624 27.554 51.1571 28.1535 50.6412 28.6497C50.5544 28.7304 50.4843 28.8273 50.4351 28.935C50.3858 29.0428 50.3583 29.1592 50.3541 29.2776C50.3499 29.396 50.3692 29.5141 50.4107 29.625C50.4523 29.736 50.5144 29.8376 50.5953 29.9242ZM34.2 45.9001C34.2 46.0781 34.1473 46.2521 34.0484 46.4001C33.9495 46.5481 33.8089 46.6634 33.6445 46.7315C33.48 46.7997 33.299 46.8175 33.1245 46.7828C32.9499 46.748 32.7895 46.6623 32.6636 46.5364C32.5378 46.4106 32.4521 46.2502 32.4173 46.0756C32.3826 45.9011 32.4004 45.7201 32.4685 45.5556C32.5367 45.3912 32.652 45.2506 32.8 45.1517C32.948 45.0528 33.122 45.0001 33.3 45.0001C33.5387 45.0001 33.7677 45.0949 33.9364 45.2637C34.1052 45.4324 34.2 45.6614 34.2 45.9001ZM38.7 35.1001C38.7 34.922 38.7528 34.748 38.8517 34.6C38.9506 34.452 39.0912 34.3367 39.2556 34.2686C39.4201 34.2004 39.601 34.1826 39.7756 34.2173C39.9502 34.2521 40.1106 34.3378 40.2364 34.4637C40.3623 34.5895 40.448 34.7499 40.4827 34.9245C40.5175 35.0991 40.4996 35.28 40.4315 35.4445C40.3634 35.6089 40.2481 35.7495 40.1001 35.8484C39.952 35.9473 39.778 36.0001 39.6 36.0001C39.3613 36.0001 39.1324 35.9052 38.9636 35.7364C38.7949 35.5677 38.7 35.3387 38.7 35.1001ZM43.2 24.3C43.2 24.122 43.2528 23.948 43.3517 23.8C43.4506 23.652 43.5912 23.5367 43.7556 23.4686C43.9201 23.4004 44.101 23.3826 44.2756 23.4173C44.4502 23.4521 44.6106 23.5378 44.7364 23.6637C44.8623 23.7895 44.948 23.9499 44.9827 24.1245C45.0175 24.299 44.9996 24.48 44.9315 24.6445C44.8634 24.8089 44.7481 24.9495 44.6001 25.0484C44.452 25.1473 44.278 25.2 44.1 25.2C43.8613 25.2 43.6324 25.1052 43.4636 24.9364C43.2949 24.7677 43.2 24.5387 43.2 24.3ZM38.7 18.9C38.7 18.722 38.7528 18.548 38.8517 18.4C38.9506 18.252 39.0912 18.1367 39.2556 18.0686C39.4201 18.0004 39.601 17.9826 39.7756 18.0173C39.9502 18.0521 40.1106 18.1378 40.2364 18.2637C40.3623 18.3895 40.448 18.5499 40.4827 18.7245C40.5175 18.899 40.4996 19.08 40.4315 19.2445C40.3634 19.4089 40.2481 19.5495 40.1001 19.6484C39.952 19.7473 39.778 19.8 39.6 19.8C39.3613 19.8 39.1324 19.7052 38.9636 19.5364C38.7949 19.3677 38.7 19.1387 38.7 18.9ZM32.4 8.10005C32.4 7.92204 32.4528 7.74804 32.5517 7.60003C32.6506 7.45203 32.7912 7.33667 32.9556 7.26856C33.1201 7.20044 33.301 7.18261 33.4756 7.21734C33.6502 7.25207 33.8106 7.33778 33.9364 7.46365C34.0623 7.58952 34.148 7.74988 34.1827 7.92447C34.2175 8.09905 34.1996 8.28001 34.1315 8.44446C34.0634 8.60892 33.9481 8.74948 33.8 8.84837C33.652 8.94726 33.478 9.00005 33.3 9.00005C33.0613 9.00005 32.8324 8.90523 32.6636 8.73644C32.4949 8.56766 32.4 8.33874 32.4 8.10005Z" fill="#0264FA"/>
<path d="M15.3001 37.8C15.0615 37.8 14.8325 37.8949 14.6637 38.0637C14.495 38.2324 14.4001 38.4614 14.4001 38.7C14.4001 38.9387 14.495 39.1677 14.6637 39.3364C14.8325 39.5052 15.0615 39.6 15.3001 39.6C16.2549 39.6 17.1706 39.9793 17.8457 40.6545C18.5209 41.3296 18.9001 42.2453 18.9001 43.2C18.9001 43.4387 18.995 43.6677 19.1638 43.8364C19.3325 44.0052 19.5615 44.1 19.8001 44.1C20.0388 44.1 20.2678 44.0052 20.4365 43.8364C20.6053 43.6677 20.7001 43.4387 20.7001 43.2C20.6987 41.7683 20.1293 40.3956 19.1169 39.3833C18.1046 38.3709 16.7319 37.8015 15.3001 37.8Z" fill="#0264FA"/>
<path d="M17.1 22.5C16.8613 22.5 16.6323 22.5948 16.4636 22.7636C16.2948 22.9324 16.2 23.1613 16.2 23.4C16.2 23.6387 16.2948 23.8676 16.4636 24.0364C16.6323 24.2052 16.8613 24.3 17.1 24.3C18.0547 24.3 18.9704 24.6793 19.6455 25.3544C20.3207 26.0295 20.7 26.9452 20.7 27.9C20.7 28.1387 20.7948 28.3676 20.9636 28.5364C21.1323 28.7052 21.3613 28.8 21.6 28.8C21.8386 28.8 22.0676 28.7052 22.2363 28.5364C22.4051 28.3676 22.5 28.1387 22.5 27.9C22.4985 26.4683 21.9291 25.0956 20.9167 24.0832C19.9044 23.0708 18.5317 22.5014 17.1 22.5Z" fill="#0264FA"/>
<path d="M12.6 27.9C11.1682 27.9015 9.79554 28.4708 8.78315 29.4832C7.77077 30.4956 7.20138 31.8683 7.19995 33.3C7.19995 33.5387 7.29477 33.7676 7.46356 33.9364C7.63234 34.1052 7.86126 34.2 8.09995 34.2C8.33865 34.2 8.56756 34.1052 8.73635 33.9364C8.90513 33.7676 8.99995 33.5387 8.99995 33.3C8.99995 32.3452 9.37924 31.4296 10.0544 30.7544C10.7295 30.0793 11.6452 29.7 12.6 29.7C12.8386 29.7 13.0676 29.6052 13.2363 29.4364C13.4051 29.2676 13.5 29.0387 13.5 28.8C13.5 28.5613 13.4051 28.3324 13.2363 28.1636C13.0676 27.9948 12.8386 27.9 12.6 27.9Z" fill="#0264FA"/>
<path d="M15.3 17.1001C15.3 16.1453 15.6793 15.2296 16.3544 14.5545C17.0295 13.8794 17.9452 13.5001 18.9 13.5001C19.1387 13.5001 19.3676 13.4053 19.5364 13.2365C19.7052 13.0677 19.8 12.8388 19.8 12.6001C19.8 12.3614 19.7052 12.1325 19.5364 11.9637C19.3676 11.7949 19.1387 11.7001 18.9 11.7001C17.4683 11.7015 16.0956 12.2709 15.0832 13.2833C14.0708 14.2957 13.5014 15.6683 13.5 17.1001C13.5 17.3388 13.5948 17.5677 13.7636 17.7365C13.9324 17.9053 14.1613 18.0001 14.4 18.0001C14.6387 18.0001 14.8676 17.9053 15.0364 17.7365C15.2052 17.5677 15.3 17.3388 15.3 17.1001Z" fill="#0264FA"/>
</svg>
