<svg width="81" height="91" viewBox="0 0 81 91" fill="none" xmlns="http://www.w3.org/2000/svg">
<rect x="1" y="40.5" width="79" height="9" rx="4.5" stroke="#0264FA" stroke-width="2"/>
<path d="M41 1C41 0.447715 40.5523 0 40 0C39.4477 0 39 0.447715 39 1H40H41ZM39.2929 31.7071C39.6834 32.0976 40.3166 32.0976 40.7071 31.7071L47.0711 25.3431C47.4616 24.9526 47.4616 24.3195 47.0711 23.9289C46.6805 23.5384 46.0474 23.5384 45.6569 23.9289L40 29.5858L34.3431 23.9289C33.9526 23.5384 33.3195 23.5384 32.9289 23.9289C32.5384 24.3195 32.5384 24.9526 32.9289 25.3431L39.2929 31.7071ZM40 1H39V31H40H41V1H40Z" fill="#0264FA"/>
<path d="M39 89.5C39 90.0523 39.4477 90.5 40 90.5C40.5523 90.5 41 90.0523 41 89.5L40 89.5L39 89.5ZM40.7071 58.7929C40.3166 58.4024 39.6834 58.4024 39.2929 58.7929L32.9289 65.1569C32.5384 65.5474 32.5384 66.1805 32.9289 66.5711C33.3195 66.9616 33.9526 66.9616 34.3431 66.5711L40 60.9142L45.6569 66.5711C46.0474 66.9616 46.6805 66.9616 47.0711 66.5711C47.4616 66.1805 47.4616 65.5474 47.0711 65.1569L40.7071 58.7929ZM40 89.5L41 89.5L41 59.5L40 59.5L39 59.5L39 89.5L40 89.5Z" fill="#0264FA"/>
</svg>
