<svg width="54" height="54" viewBox="0 0 54 54" fill="none" xmlns="http://www.w3.org/2000/svg">
<g clip-path="url(#clip0_2_177)">
<path d="M25.8504 4.5352L10.0512 17.202H5.63203C2.5207 17.2125 0 19.7332 0 22.834V31.1555C0 34.2668 2.5207 36.7875 5.63203 36.7875H10.0512L25.8504 49.4649C28.793 51.8274 33.1594 49.7391 33.1594 45.9528V8.03676C33.1594 4.27153 28.793 2.1727 25.8504 4.5352ZM2.2043 31.1661V22.8446C2.2043 20.9461 3.73359 19.4168 5.63203 19.4168H9.34453V34.6043H5.63203C3.73359 34.5938 2.2043 33.0539 2.2043 31.1661ZM30.9551 45.9633C30.9551 47.9039 28.7297 48.9481 27.232 47.7563L11.5383 35.1633V18.8368L27.232 6.25434C28.7297 5.052 30.9656 6.10668 30.9656 8.04731V45.9633H30.9551Z" fill="#0264FA"/>
<path d="M47.271 10.7367C46.8386 10.3042 46.1425 10.3042 45.7101 10.7367C45.2776 11.1691 45.2776 11.8652 45.7101 12.2976C53.8206 20.4292 53.8206 33.5917 45.7101 41.7128C45.2776 42.1453 45.2776 42.8414 45.7101 43.2738C46.1425 43.7062 46.8386 43.7062 47.271 43.2738C56.2464 34.2773 56.2464 19.7226 47.271 10.7367Z" fill="#0264FA"/>
<path d="M42.8835 15.1136C42.4511 14.6812 41.755 14.6812 41.3226 15.1136C40.8902 15.546 40.8902 16.2421 41.3226 16.6746C47.0179 22.3804 47.0179 31.6195 41.3226 37.3253C40.8902 37.7578 40.8902 38.4539 41.3226 38.8863C41.755 39.3187 42.4511 39.3187 42.8835 38.8863C49.4437 32.3156 49.4437 21.6843 42.8835 15.1136Z" fill="#0264FA"/>
<path d="M38.5066 19.5011C38.0637 19.0793 37.3676 19.1004 36.9457 19.5328C36.5344 19.9547 36.5344 20.6297 36.9457 21.0621C40.2258 24.3422 40.2258 29.6683 36.9457 32.9589C36.5238 33.4019 36.5449 34.098 36.9773 34.5199C37.3992 34.9312 38.0742 34.9312 38.5066 34.5199C42.6516 30.3644 42.6516 23.6461 38.5066 19.5011Z" fill="#0264FA"/>
</g>
<defs>
<clipPath id="clip0_2_177">
<rect width="54" height="54" fill="white"/>
</clipPath>
</defs>
</svg>
