<svg width="71" height="31" viewBox="0 0 71 31" fill="none" xmlns="http://www.w3.org/2000/svg">
<path d="M3.79427 0H61.6768C63.7654 0 65.4711 1.70551 65.4711 3.79411V27.0885C65.4711 29.1771 63.7654 30.8826 61.6768 30.8826H3.79427C1.70567 30.8826 0 29.1771 0 27.0885V3.79411C0 1.70551 1.70567 0 3.79427 0ZM61.6768 1.94152H3.79427C2.77699 1.94152 1.94152 2.77683 1.94152 3.79411V27.0885C1.94152 28.1057 2.777 28.941 3.79427 28.941H61.6768C62.6941 28.941 63.5296 28.1057 63.5296 27.0885V3.79411C63.5296 2.77683 62.6941 1.94152 61.6768 1.94152Z" fill="#0264FA"/>
<path d="M64.5003 7.09791H67.5719C69.457 7.09791 71.0002 8.6411 71.0002 10.5261V20.3566C71.0002 22.2416 69.4561 23.7848 67.5719 23.7848H64.5003C63.9642 23.7848 63.5295 23.3501 63.5295 22.814V8.06866C63.5295 7.53259 63.9642 7.09791 64.5003 7.09791ZM67.5719 9.03943H65.4711V21.8433H67.5719C68.3904 21.8433 69.0586 21.1724 69.0586 20.3566V10.5261C69.0586 9.70983 68.3896 9.03943 67.5719 9.03943Z" fill="#0264FA"/>
<path d="M51.7498 10.168L45.8424 15.3294L48.8495 16.9771C49.3194 17.2349 49.4914 17.8252 49.2336 18.2951C48.6008 19.455 47.9539 20.6102 47.3153 21.7674L53.457 16.3621L50.2677 14.7198C49.7419 14.4486 49.5805 13.7741 49.9215 13.2947L51.7498 10.168ZM54.8778 4.86591C55.1814 4.55095 55.6718 4.47184 56.0662 4.70245C56.5289 4.97303 56.6847 5.56774 56.4141 6.03043L52.0628 13.4639L55.5444 15.2598C55.6735 15.315 55.7927 15.399 55.8916 15.5114C56.2458 15.9138 56.2066 16.5272 55.8042 16.8813L44.4525 26.8709C44.1541 27.16 43.6906 27.2344 43.308 27.0232C42.5503 26.6051 42.8706 25.6728 42.9286 25.7051L47.0649 18.2104L43.7476 16.3906C43.6301 16.3352 43.522 16.2554 43.4313 16.1514C43.0787 15.7479 43.1201 15.1345 43.5237 14.7818L54.8778 4.86591Z" fill="#0264FA"/>
<path d="M9.60894 11.3463C9.07287 11.3463 8.63818 11.781 8.63818 12.3171C8.63818 12.8531 9.07287 13.2878 9.60894 13.2878H15.558C16.0941 13.2878 16.5287 12.8531 16.5287 12.3171C16.5287 11.781 16.0941 11.3463 15.558 11.3463H9.60894Z" fill="#0264FA"/>
<path d="M9.60894 17.6788C9.07287 17.6788 8.63818 18.1135 8.63818 18.6496C8.63818 19.1857 9.07287 19.6204 9.60894 19.6204H15.558C16.0941 19.6204 16.5287 19.1857 16.5287 18.6496C16.5287 18.1135 16.0941 17.6788 15.558 17.6788H9.60894Z" fill="#0264FA"/>
<path d="M11.4511 4.1217H13.7159C15.2617 4.1217 16.5288 5.39056 16.5288 6.93457V23.9087C16.5288 25.4546 15.2599 26.7216 13.7159 26.7216H11.4511C9.90523 26.7216 8.63818 25.4528 8.63818 23.9087V6.93457C8.63818 5.38876 9.90704 4.1217 11.4511 4.1217ZM13.7159 6.06323H11.4511C10.9712 6.06323 10.5797 6.45451 10.5797 6.93457V23.9087C10.5797 24.3886 10.971 24.7801 11.4511 24.7801H13.7159C14.1958 24.7801 14.5872 24.3888 14.5872 23.9087V6.93457C14.5872 6.45468 14.1959 6.06323 13.7159 6.06323Z" fill="#0264FA"/>
<path d="M20.6439 11.3463C20.1078 11.3463 19.6731 11.781 19.6731 12.3171C19.6731 12.8531 20.1078 13.2878 20.6439 13.2878H26.5929C27.129 13.2878 27.5637 12.8531 27.5637 12.3171C27.5637 11.781 27.129 11.3463 26.5929 11.3463H20.6439Z" fill="#0264FA"/>
<path d="M20.6439 17.6788C20.1078 17.6788 19.6731 18.1135 19.6731 18.6496C19.6731 19.1857 20.1078 19.6204 20.6439 19.6204H26.5929C27.129 19.6204 27.5637 19.1857 27.5637 18.6496C27.5637 18.1135 27.129 17.6788 26.5929 17.6788H20.6439Z" fill="#0264FA"/>
<path d="M22.4862 4.1217H24.751C26.2969 4.1217 27.5639 5.39056 27.5639 6.93457V23.9087C27.5639 25.4546 26.2951 26.7216 24.751 26.7216H22.4862C20.9404 26.7216 19.6733 25.4528 19.6733 23.9087V6.93457C19.6733 5.38876 20.9422 4.1217 22.4862 4.1217ZM24.751 6.06323H22.4862C22.0063 6.06323 21.6149 6.45451 21.6149 6.93457V23.9087C21.6149 24.3886 22.0061 24.7801 22.4862 24.7801H24.751C25.2309 24.7801 25.6224 24.3888 25.6224 23.9087V6.93457C25.6224 6.45468 25.2311 6.06323 24.751 6.06323Z" fill="#0264FA"/>
<path d="M31.6785 11.3463C31.1425 11.3463 30.7078 11.781 30.7078 12.3171C30.7078 12.8531 31.1425 13.2878 31.6785 13.2878H37.6276C38.1636 13.2878 38.5983 12.8531 38.5983 12.3171C38.5983 11.781 38.1636 11.3463 37.6276 11.3463H31.6785Z" fill="#0264FA"/>
<path d="M31.6785 17.6788C31.1425 17.6788 30.7078 18.1135 30.7078 18.6496C30.7078 19.1857 31.1425 19.6204 31.6785 19.6204H37.6276C38.1636 19.6204 38.5983 19.1857 38.5983 18.6496C38.5983 18.1135 38.1636 17.6788 37.6276 17.6788H31.6785Z" fill="#0264FA"/>
<path d="M33.5206 4.1217H35.7855C37.3313 4.1217 38.5983 5.39056 38.5983 6.93457V23.9087C38.5983 25.4546 37.3295 26.7216 35.7855 26.7216H33.5206C31.9748 26.7216 30.7078 25.4528 30.7078 23.9087V6.93457C30.7078 5.38876 31.9766 4.1217 33.5206 4.1217ZM35.7855 6.06323H33.5206C33.0407 6.06323 32.6493 6.45451 32.6493 6.93457V23.9087C32.6493 24.3886 33.0406 24.7801 33.5206 24.7801H35.7855C36.2654 24.7801 36.6568 24.3888 36.6568 23.9087V6.93457C36.6568 6.45468 36.2655 6.06323 35.7855 6.06323Z" fill="#0264FA"/>
</svg>
