<svg xmlns="http://www.w3.org/2000/svg" viewBox="0 12.75 228.4499969482422 82.47750091552734" data-asc="0.97"
     width="228.4499969482422" height="82.47750091552734">
    <defs/>
    <g fill="#ffffff">
        <g transform="translate(0, 0)">
            <path d="M0 48.50L0 13.15L3 13.15L16.40 35.75L29.50 13.15L32.45 13.15L32.45 48.50L30.35 48.50L30.35 15.65L16.90 38.75L15.80 38.75L2.10 15.65L2.10 48.50L0 48.50ZM41.75 48.50L41.75 13.15L64.55 13.15L64.55 15.05L43.85 15.05L43.85 30L62.45 30L62.45 31.90L43.85 31.90L43.85 46.60L64.55 46.60L64.55 48.50L41.75 48.50ZM86 48.90Q80.65 48.90 77.13 46.58Q73.60 44.25 71.83 40.25Q70.05 36.25 69.95 31.30Q69.90 27.45 70.88 24.10Q71.85 20.75 73.83 18.20Q75.80 15.65 78.83 14.20Q81.85 12.75 85.90 12.75Q88.90 12.75 91.53 13.52Q94.15 14.30 96.17 16.02Q98.20 17.75 99.40 20.60L96.90 20.60Q96 18.55 94.22 17.20Q92.45 15.85 90.30 15.20Q88.15 14.55 86 14.55Q82.35 14.55 79.72 15.88Q77.10 17.20 75.42 19.52Q73.75 21.85 72.97 24.80Q72.20 27.75 72.20 31.05Q72.20 35.40 73.65 39.05Q75.10 42.70 78.17 44.90Q81.25 47.10 86.05 47.10Q90.10 47.10 92.92 45.42Q95.75 43.75 97.28 40.73Q98.80 37.70 98.85 33.70L86.45 33.70L86.45 31.85L100.75 31.85L100.75 33.80Q100.75 38.25 98.95 41.67Q97.15 45.10 93.83 47Q90.50 48.90 86 48.90ZM103.50 48.50L117.40 13.15L119.75 13.15L133.80 48.50L131.35 48.50L128.15 40.35L109.05 40.35L105.90 48.50L103.50 48.50M109.75 38.50L127.40 38.50L118.60 15.65L109.75 38.50ZM139.25 48.50L139.25 13.15L151 13.15Q154.80 13.15 157.47 14.35Q160.15 15.55 161.60 18.07Q163.05 20.60 163.05 24.50Q163.05 28.40 161.32 30.95Q159.60 33.50 156.65 34.75Q153.70 36 150 36L141.35 36L141.35 48.50L139.25 48.50M141.35 34.15L149.90 34.15Q154.80 34.15 157.82 31.80Q160.85 29.45 160.85 24.30Q160.85 19.30 158.13 17.17Q155.40 15.05 150.70 15.05L141.35 15.05L141.35 34.15ZM164.10 48.50L178 13.15L180.35 13.15L194.40 48.50L191.95 48.50L188.75 40.35L169.65 40.35L166.50 48.50L164.10 48.50M170.35 38.50L188 38.50L179.20 15.65L170.35 38.50ZM199.85 48.50L199.85 13.15L212.00 13.15Q217.45 13.15 221.10 15.38Q224.75 17.60 226.60 21.57Q228.45 25.55 228.45 30.85Q228.45 36.05 226.60 40.02Q224.75 44 221.08 46.25Q217.40 48.50 212.00 48.50L199.85 48.50M201.95 46.60L211.60 46.60Q216.45 46.60 219.70 44.60Q222.95 42.60 224.60 39.05Q226.25 35.50 226.25 30.85Q226.25 26.30 224.68 22.72Q223.10 19.15 219.95 17.10Q216.80 15.05 211.95 15.05L201.95 15.05L201.95 46.60Z"/>
        </g>
        <g transform="translate(0, 46.3275)">
            <path d="M0 48.50L0 13.15L11.75 13.15Q15.55 13.15 18.23 14.35Q20.90 15.55 22.35 18.07Q23.80 20.60 23.80 24.50Q23.80 28.40 22.08 30.95Q20.35 33.50 17.40 34.75Q14.45 36 10.75 36L2.10 36L2.10 48.50L0 48.50M2.10 34.15L10.65 34.15Q15.55 34.15 18.58 31.80Q21.60 29.45 21.60 24.30Q21.60 19.30 18.88 17.17Q16.15 15.05 11.45 15.05L2.10 15.05L2.10 34.15ZM31.20 48.50L31.20 13.15L44.05 13.15Q46.80 13.15 49.05 13.70Q51.30 14.25 52.93 15.50Q54.55 16.75 55.43 18.77Q56.30 20.80 56.30 23.75Q56.30 26.40 55.33 28.45Q54.35 30.50 52.43 31.85Q50.50 33.20 47.60 33.85L55.50 48.50L53.10 48.50L45.40 34.20L33.30 34.20L33.30 48.50L31.20 48.50M33.30 32.35L42.65 32.35Q44.85 32.35 46.90 32Q48.95 31.65 50.58 30.70Q52.20 29.75 53.15 28.02Q54.10 26.30 54.10 23.60Q54.10 20.20 52.70 18.35Q51.30 16.50 48.93 15.77Q46.55 15.05 43.55 15.05L33.30 15.05L33.30 32.35ZM78.45 48.90Q73 48.90 69.33 46.55Q65.65 44.20 63.80 40.13Q61.95 36.05 61.95 30.85Q61.95 25.65 63.80 21.55Q65.65 17.45 69.33 15.10Q73 12.75 78.45 12.75Q83.90 12.75 87.55 15.13Q91.20 17.50 93.05 21.57Q94.90 25.65 94.90 30.85Q94.90 36 93.05 40.10Q91.20 44.20 87.55 46.55Q83.90 48.90 78.45 48.90M78.45 47.10Q83.25 47.10 86.40 44.92Q89.55 42.75 91.10 39.05Q92.65 35.35 92.65 30.85Q92.65 27.50 91.78 24.55Q90.90 21.60 89.15 19.35Q87.40 17.10 84.73 15.82Q82.05 14.55 78.45 14.55Q73.65 14.55 70.48 16.77Q67.30 19 65.73 22.70Q64.15 26.40 64.15 30.85Q64.15 35.30 65.75 39Q67.35 42.70 70.55 44.90Q73.75 47.10 78.45 47.10Z"/>
        </g>
    </g>
</svg>