<svg width="137" height="25" viewBox="0 0 137 25" fill="none" xmlns="http://www.w3.org/2000/svg">
<path fill-rule="evenodd" clip-rule="evenodd" d="M95.6475 1.35227C91.6825 1.46644 92.3775 3.17905 93.3428 5.71164L98.4912 18.862L103.536 6.947C101.875 2.64986 101.823 1.83949 98.6572 1.36204V0.563207H110.138V1.36204C106.11 1.51773 106.65 3.13755 107.304 4.90207L112.566 18.862C114.715 14.077 118.472 5.81485 118.472 3.2927C118.471 1.51819 116.811 1.51772 115.462 1.36204V0.563207H124.523V1.36204C121.462 1.58 120.662 3.72883 119.541 6.14719L111.165 24.82H110.418L104.034 8.50364L97.3291 24.82H96.5195L96.499 24.8103L88.7764 5.6384C87.8111 3.3343 87.219 1.50759 84.3232 1.34153V0.542699H95.6475V1.35227ZM78.583 0.0134022C79.652 -0.0488526 80.7315 0.106216 81.7383 0.469457C82.745 0.832715 83.6688 1.41422 84.4473 2.1511C85.2256 2.88794 85.8378 3.79119 86.2529 4.77707C86.6681 5.77345 86.8762 6.84281 86.8555 7.91184H71.2969L71.0684 10.5896C70.9023 11.9389 71.0265 13.299 71.4209 14.5964C71.8153 15.8939 72.4794 17.088 73.3721 18.1052C74.2647 19.1223 75.3651 19.9422 76.5898 20.5027C77.8146 21.0631 79.1536 21.3643 80.5029 21.3747C81.7588 21.3851 82.9939 21.0835 84.1045 20.4919C85.2047 19.9003 86.1499 19.0392 86.835 17.9909L87.6338 18.5818C86.6581 20.3774 85.2461 21.904 83.5127 22.9939C81.7898 24.0939 79.8073 24.7169 77.7627 24.8103C76.2371 24.7895 74.7322 24.4675 73.3311 23.8552C71.9298 23.2428 70.6636 22.3496 69.6152 21.239C68.5669 20.1284 67.7461 18.8208 67.2168 17.3884C66.6876 15.9562 66.4495 14.4306 66.5117 12.905C66.5117 5.97147 71.3381 0.0134022 78.583 0.0134022ZM129.496 0.00266004C131.613 -0.0180169 133.689 0.605299 135.453 1.77805L135.609 6.55246L134.437 6.7595L134.426 6.78098C133.678 4.31065 132.505 1.30051 129.443 1.30051C128.956 1.2902 128.468 1.38327 128.021 1.57004C127.575 1.75687 127.171 2.03751 126.828 2.39036C126.496 2.74323 126.237 3.16907 126.081 3.62571C125.925 4.08221 125.862 4.56973 125.894 5.05735C125.894 10.5896 137 10.4242 137 17.3474C137 22.132 132.444 24.8102 128.095 24.8103C125.759 24.8518 123.476 24.1563 121.556 22.8279L121.13 16.8698L122.365 16.6521C123.123 19.9318 124.939 23.4185 128.748 23.4187C129.308 23.4291 129.859 23.3361 130.367 23.1286C130.886 22.9211 131.353 22.6095 131.737 22.2048C132.121 21.8105 132.423 21.3331 132.62 20.8142C132.817 20.2952 132.9 19.7344 132.869 19.1843C132.869 13.0605 121.763 14.2954 121.763 6.61496C121.763 2.43201 125.687 0.00266004 129.496 0.00266004ZM13.7949 0.00266004C15.5181 0.00269285 19.6382 0.220986 19.6387 2.68039C19.5764 3.32384 19.2857 3.92647 18.8291 4.37278C18.3725 4.82942 17.7597 5.09916 17.1162 5.1511C15.2375 5.1511 13.3065 1.66379 10.6182 1.66379C6.33156 1.66397 4.28711 6.65638 4.28711 10.2995C4.28719 17.2226 9.00958 21.6237 14.3135 21.6238C16.3374 21.5822 18.2884 20.8446 19.835 19.5368L20.4785 20.3366C19.3161 21.7066 17.8736 22.8176 16.2441 23.5857C14.6146 24.3537 12.8396 24.768 11.0439 24.7888L10.749 24.8064C4.36525 24.6393 0 19.2419 0 13.0603C2.83009e-05 5.54551 6.55001 0.00266004 13.7949 0.00266004ZM57.2334 0.00266004C63.6687 0.00266004 63.9902 5.31737 63.9902 8.48313V18.0427C63.9902 22.4435 64.2089 22.8794 68.1738 23.4607V24.2702H55.666V23.4607C59.6309 22.869 59.7967 22.2255 59.8486 18.0427V11.8767C59.8486 8.11933 60.0046 2.80546 53.4658 2.80539C52.4486 2.79501 51.4309 2.99203 50.4863 3.38645C49.5421 3.78079 48.6914 4.37246 47.9961 5.10911V18.0525C47.9961 22.4534 48.2137 22.8902 52.1787 23.4714V24.281H39.6816V23.4714C43.6466 22.8798 43.8124 22.2354 43.8643 18.0525V7.79758C43.8643 5.54547 43.9161 4.8498 41.2383 2.90891L41.249 2.36985L47.6328 0.00266004L48.2236 0.210668L47.7988 4.13352C50.8606 1.89169 53.8083 0.00268763 57.2334 0.00266004ZM30.6201 4.155C34.9172 4.15502 38.4042 7.6421 38.4043 11.9392C38.4043 16.2363 34.9172 19.7243 30.6201 19.7243C26.323 19.7243 22.835 16.2363 22.835 11.9392C22.835 7.64209 26.323 4.155 30.6201 4.155ZM29.0635 5.19211C27.3405 5.19211 25.9493 6.5834 25.9492 8.30637C25.9492 10.0294 27.3405 11.4206 29.0635 11.4206C30.7863 11.4205 32.1768 10.0293 32.1768 8.30637C32.1767 6.5835 30.7863 5.19229 29.0635 5.19211ZM76.9219 1.19602C73.8601 1.19619 72.033 4.21739 71.4414 6.89524L81.749 6.45871C81.2715 3.98841 79.7555 1.19602 76.9219 1.19602Z" fill="white"/>
</svg>
