<svg width="137" height="28" viewBox="0 0 137 28" fill="none" xmlns="http://www.w3.org/2000/svg">
<path d="M110.718 13.7038C110.718 11.2432 110.743 8.78261 110.718 6.3349C110.666 3.14 113.375 0.0352809 116.919 0.0223982C121.554 0.00951554 126.189 -0.00336713 130.824 0.0223982C133.867 0.0352809 136.499 2.40569 136.923 5.446C136.974 5.78095 137 6.12878 137 6.46373C137 11.3334 137 16.203 137 21.0727C137 23.9842 134.92 26.6251 132.095 27.2435C131.556 27.3594 130.991 27.4238 130.439 27.4238C125.971 27.4367 121.516 27.4625 117.047 27.4238C113.311 27.3981 110.679 24.2676 110.718 21.1242C110.743 18.6507 110.718 16.1773 110.718 13.7038ZM117.921 13.7424C117.921 15.9454 117.921 18.1612 117.921 20.3641C117.921 21.9873 119.397 23.675 121.002 23.7394C122.877 23.8167 124.751 23.8167 126.613 23.7394C128.295 23.675 129.784 22.0389 129.784 20.3512C129.797 15.9196 129.797 11.488 129.784 7.05633C129.784 5.31717 128.141 3.66819 126.407 3.64243C124.687 3.61666 122.966 3.61666 121.246 3.64243C119.513 3.66819 117.908 5.34294 117.908 7.0821C117.908 9.3108 117.908 11.5266 117.908 13.7553L117.921 13.7424Z" fill="white"/>
<path d="M81.0401 27.3888C81.0401 27.2213 81.0401 27.0925 81.0401 26.9508C81.0401 18.1648 81.0401 9.37881 81.0272 0.579944C81.0272 0.0775197 81.1942 0.000223636 81.6307 0.000223636C88.0505 0.000223636 94.4702 0.0388716 100.89 0.000223636C103.946 -0.0255417 106.745 2.17739 107.284 5.38518C107.335 5.69436 107.335 6.00355 107.335 6.31273C107.335 13.1534 107.335 20.007 107.335 26.8477C107.335 27.2857 107.246 27.4403 106.783 27.4274C104.755 27.4017 102.726 27.4017 100.685 27.4274C100.222 27.4274 100.158 27.2728 100.158 26.8606C100.158 20.3935 100.158 13.9135 100.158 7.44641C100.158 5.47536 99.0283 4.05826 97.128 3.6589C96.9354 3.62025 96.73 3.60737 96.5246 3.60737C93.9567 3.60737 91.3759 3.60737 88.808 3.59449C88.3329 3.59449 88.2045 3.72332 88.2045 4.18709C88.2174 11.7363 88.2045 19.2727 88.2045 26.8219C88.2045 26.9894 88.2045 27.1569 88.2045 27.363H81.0144L81.0401 27.3888Z" fill="white"/>
<path d="M52.0528 3.6192C51.8217 3.6192 51.6419 3.6192 51.4621 3.6192C47.8671 3.6192 44.272 3.65785 40.6769 3.60632C38.5712 3.58055 36.5683 5.22954 36.8636 8.01219C37.0562 9.88018 38.0063 11.0525 39.5599 11.4519C39.9579 11.5549 40.3816 11.6065 40.7925 11.6065C44.3876 11.6065 47.9826 11.6065 51.5777 11.6065C51.7189 11.6065 51.8473 11.6065 52.0142 11.6065V15.2007C51.8345 15.2007 51.6547 15.2007 51.475 15.2007C46.8142 15.2007 42.1406 15.2007 37.4799 15.2007C36.8251 15.2007 36.8122 15.2007 36.8251 15.8706C36.8379 17.4423 36.8251 19.014 36.9021 20.5728C36.9791 22.1574 38.4814 23.6131 40.0606 23.7419C40.5357 23.7806 41.0236 23.7935 41.4987 23.8064C44.8113 23.8064 48.1367 23.8064 51.4493 23.8064C51.6291 23.8064 51.8088 23.8064 52.0271 23.8064V27.3877C51.8987 27.3877 51.7575 27.4135 51.6291 27.4135C46.3777 27.4135 41.1135 27.4521 35.8621 27.4006C32.7036 27.362 30.2897 24.9916 29.789 22.2089C29.7248 21.8482 29.6991 21.4746 29.6991 21.101C29.6991 16.1798 29.7248 11.2715 29.6863 6.35033C29.6349 3.12966 32.3184 0.0378198 35.8364 0.0249371C41.0878 -0.000828229 46.352 0.0249371 51.6034 0.0120544C51.95 0.0120544 52.0528 0.115116 52.0528 0.462948C52.0271 1.50644 52.0528 2.53706 52.0528 3.63209V3.6192Z" fill="white"/>
<path d="M77.653 27.4272C77.4732 27.4272 77.3063 27.4272 77.1394 27.4272C72.0678 27.4272 66.9962 27.4272 61.9245 27.4272C58.7532 27.4272 56.2751 25.4948 55.5048 22.403C55.4149 22.0294 55.3635 21.6429 55.3635 21.2564C55.3635 16.2322 55.3635 11.2079 55.3635 6.18368C55.3635 3.36238 57.649 0.618368 60.4351 0.141709C60.8845 0.0644134 61.3596 0.0128827 61.8218 0.0128827C66.932 0.0128827 72.0549 0.0128827 77.1651 0C77.6145 0 77.7557 0.115944 77.73 0.566838C77.6915 1.5588 77.73 2.55077 77.73 3.62003C77.5117 3.62003 77.332 3.62003 77.1522 3.62003C73.5186 3.62003 69.8979 3.62003 66.2643 3.62003C64.1458 3.62003 62.5537 5.2046 62.5537 7.31736C62.5537 11.5042 62.605 15.6911 62.528 19.8651C62.4895 21.8104 63.889 23.8329 66.5211 23.8072C70.0263 23.7814 73.5315 23.8072 77.0367 23.8072C77.8713 23.8072 77.7172 23.8072 77.73 24.5157C77.73 25.4304 77.73 26.3451 77.73 27.2726C77.73 27.2984 77.7043 27.3241 77.6787 27.4143L77.653 27.4272Z" fill="white"/>
<path d="M0.0256791 3.62221V0.0537084C0.192593 0.0408258 0.359507 0.0150604 0.513582 0.0150604C8.91064 0.0150604 17.3205 0.0150604 25.7176 0.0150604C26.2055 0.0150604 26.3339 0.169653 26.3082 0.633429C26.2697 1.48369 26.2825 2.34682 26.3082 3.19708C26.3082 3.54491 26.1927 3.64797 25.846 3.64797C24.0485 3.63509 22.2509 3.64797 20.4534 3.64797C18.3605 3.64797 16.7684 5.23254 16.7684 7.31954C16.7684 13.8253 16.7684 20.3182 16.7684 26.8239C16.7684 27.0043 16.7684 27.1975 16.7684 27.4423H16.242C14.2134 27.4423 12.1847 27.4294 10.1561 27.4423C9.68102 27.4423 9.56546 27.3263 9.56546 26.8497C9.5783 19.3648 9.56546 11.88 9.56546 4.40805C9.56546 4.31787 9.56546 4.21481 9.56546 4.12463C9.61682 3.73815 9.44991 3.62221 9.06472 3.62221C6.882 3.63509 4.69927 3.62221 2.50371 3.62221C1.68198 3.62221 0.873089 3.62221 0 3.62221H0.0256791Z" fill="white"/>
</svg>
