<svg xmlns="http://www.w3.org/2000/svg" width="79" height="24" viewBox="0 0 79 24" fill="none">
    <path d="M18.4429 0.513489H0.201495V4.47155H13.8225L0.586963 18.4343C0.576451 18.4448 0.56769 18.4553 0.558929 18.4641L0.494101 18.5324C0.187478 18.8828 0 19.3384 0 19.8395C0 20.9328 0.886577 21.8176 1.97815 21.8176H18.0452V17.8596H6.67386L19.7342 3.98971C20.1547 3.62702 20.4211 3.09087 20.4211 2.49164C20.4211 1.39831 19.5345 0.513489 18.4429 0.513489Z" fill="white"></path>
    <path d="M77.0166 0.513489C76.9938 0.513489 76.9728 0.515241 76.9517 0.516993C76.2807 0.495967 75.6166 0.813103 75.2259 1.41759L68.955 11.0981L62.6842 1.41759C62.2934 0.813103 61.6276 0.495967 60.9583 0.516993C60.9355 0.516993 60.9145 0.513489 60.8917 0.513489C59.7984 0.513489 58.9136 1.40007 58.9136 2.49164V18.0593H62.8716V8.98328L67.2782 15.7833C67.8722 16.6997 69.097 16.9625 70.0151 16.3685C70.3883 16.1267 71.0576 15.1333 71.161 14.9721L75.0419 8.98328V18.0593H79V2.49164C79 1.39831 78.1134 0.513489 77.0218 0.513489H77.0166Z" fill="white"></path>
    <path d="M69.3125 20.5438C68.9831 20.5438 68.8446 20.8399 68.8184 21.0625H69.7593C69.7628 20.861 69.6752 20.5438 69.3125 20.5438Z" fill="white"></path>
    <path d="M58.9099 18.7532V23.0214H78.9946V18.7532H58.9099ZM65.2526 21.8895C65.4506 21.8895 65.6468 21.8492 65.7748 21.7879L65.8378 22.0437C65.7239 22.1015 65.4874 22.1611 65.186 22.1611C64.4904 22.1611 63.9718 21.723 63.9718 20.91C63.9718 20.0971 64.4939 19.6152 65.2596 19.6152C65.5627 19.6152 65.7607 19.6818 65.8448 19.7256L65.7642 19.9849C65.6468 19.9271 65.4751 19.8833 65.2701 19.8833C64.6919 19.8833 64.3082 20.253 64.3082 20.8995C64.3082 21.5058 64.6551 21.8912 65.2526 21.8912V21.8895ZM68.0911 22.1208H67.7687L66.9855 20.8697C66.8138 20.5947 66.6491 20.3143 66.5282 20.0462L66.5177 20.0497C66.5352 20.3599 66.5387 20.656 66.5387 21.066V22.119H66.2391V19.6538H66.5895L67.3762 20.9013C67.5549 21.1904 67.7021 21.4497 67.8142 21.702L67.8247 21.6985C67.795 21.3691 67.788 21.0695 67.788 20.6858V19.6538H68.0876V22.119L68.0911 22.1208ZM70.0587 21.2938H68.8147C68.8217 21.7283 69.0968 21.9088 69.4209 21.9088C69.6522 21.9088 69.7941 21.8685 69.9115 21.8176L69.9694 22.0472C69.8555 22.098 69.6592 22.1611 69.3771 22.1611C68.8322 22.1611 68.5063 21.7984 68.5063 21.2657C68.5063 20.7331 68.8217 20.3143 69.3368 20.3143C69.9185 20.3143 70.0675 20.8189 70.0675 21.1448C70.0675 21.2114 70.064 21.2587 70.057 21.2955L70.0587 21.2938ZM72.2681 22.1208H71.9755L71.7057 21.2762C71.6444 21.0782 71.5918 20.903 71.548 20.6945H71.541C71.4972 20.9065 71.4429 21.0888 71.3798 21.2797L71.0942 22.1208H70.8016L70.2672 20.3511H70.5966L70.8349 21.2517C70.8822 21.4497 70.9295 21.6319 70.9628 21.8141H70.9733C71.0136 21.6354 71.0714 21.4444 71.131 21.2552L71.4201 20.3511H71.6899L71.965 21.2359C72.0316 21.4479 72.0824 21.6354 72.1227 21.8141H72.1332C72.163 21.6354 72.2103 21.4479 72.2681 21.2394L72.5205 20.3511H72.8393L72.2681 22.1208ZM73.5157 22.1611C73.3212 22.1611 73.1425 22.1102 73.0181 22.0367L73.0952 21.7949C73.1933 21.8527 73.3615 21.9193 73.5227 21.9193C73.7522 21.9193 73.8626 21.8054 73.8626 21.6564C73.8626 21.5075 73.7715 21.4217 73.5367 21.3341C73.2143 21.2167 73.0654 21.045 73.0654 20.8329C73.0654 20.5473 73.3002 20.3143 73.6769 20.3143C73.8556 20.3143 74.0133 20.3616 74.1079 20.4247L74.0308 20.6595C73.9607 20.6157 73.8328 20.5526 73.6681 20.5526C73.4771 20.5526 73.3755 20.663 73.3755 20.7944C73.3755 20.9398 73.4771 21.0064 73.7084 21.0975C74.0115 21.2114 74.1727 21.3638 74.1727 21.6284C74.1727 21.9438 73.9274 22.1628 73.5139 22.1628L73.5157 22.1611Z" fill="white"></path>
    <path d="M29.0274 23.0021C23.0141 23.0021 18.1204 18.1101 18.1204 12.0951C18.1204 6.08 23.0141 1.18981 29.0274 1.18981C31.4874 1.18981 33.8107 1.98878 35.7433 3.50262L34.664 4.8833C33.0415 3.61476 31.0931 2.94369 29.0274 2.94369C23.9795 2.94369 19.8725 7.05069 19.8725 12.0986C19.8725 17.1465 23.9795 21.2534 29.0274 21.2534C34.0753 21.2534 38.1682 17.1324 38.1805 12.0688L39.9326 12.074C39.9186 18.1031 35.0249 23.0073 29.0274 23.0073V23.0021Z" fill="white"></path>
    <path d="M45.9794 19.9008C44.7073 19.9008 43.4458 19.5872 42.328 18.9949L43.1479 17.4461C44.0135 17.9051 44.9912 18.1469 45.9776 18.1469C49.3154 18.1469 52.0312 15.4311 52.0312 12.0933C52.0312 8.75549 49.3154 6.03969 45.9776 6.03969C42.6398 6.03969 39.9328 8.75549 39.9328 12.0933H38.1807C38.1807 7.79007 41.6779 4.28756 45.9776 4.28756C50.2774 4.28756 53.7834 7.78831 53.7834 12.0933C53.7834 16.3983 50.2826 19.899 45.9776 19.899L45.9794 19.9008Z" fill="white"></path>
    <path d="M45.9829 23.0021C44.0749 23.0021 42.1983 22.5027 40.5531 21.5566L41.4256 20.0375C42.8046 20.8312 44.3797 21.2499 45.9812 21.2499C51.0291 21.2499 55.1361 17.143 55.1361 12.0951C55.1361 7.04718 51.0291 2.94019 45.9812 2.94019C40.9333 2.94019 36.8403 7.0612 36.8281 12.1249L35.0759 12.1196C35.0899 6.09052 39.9836 1.18631 45.9812 1.18631C51.9787 1.18631 56.8882 6.07825 56.8882 12.0933C56.8882 18.1084 51.9962 23.0003 45.9812 23.0003L45.9829 23.0021Z" fill="white"></path>
    <path d="M29.0328 19.9008C24.7296 19.9008 21.2271 16.4001 21.2271 12.0951C21.2271 7.79009 24.7278 4.28934 29.0328 4.28934C30.3048 4.28934 31.5664 4.60297 32.6842 5.19344L32.7263 5.21621L33.8231 5.87677L32.919 7.37834L31.8432 6.73005C30.9829 6.278 30.0122 6.03971 29.0328 6.03971C25.695 6.03971 22.9792 8.75551 22.9792 12.0933C22.9792 15.4311 25.695 18.1469 29.0328 18.1469C32.3706 18.1469 35.0776 15.4311 35.0776 12.0933H36.8298C36.8298 16.3966 33.3325 19.8991 29.0328 19.8991V19.9008Z" fill="white"></path>
</svg>