<svg width="447" height="438" viewBox="0 0 447 438" fill="none" xmlns="http://www.w3.org/2000/svg">
<path d="M60.2599 30.1299C60.2599 46.6073 46.6073 60.2599 30.1299 60.2599C13.6526 60.2599 0 46.6073 0 30.1299C0 13.6526 13.6526 0 30.1299 0C46.6073 0.47078 60.2599 13.6526 60.2599 30.1299Z" fill="white"/>
<path d="M363.912 377.094H251.867V316.363C271.169 314.48 289.058 310.714 305.065 305.065C322.013 298.944 336.607 290.941 348.847 280.113C361.088 269.756 370.503 256.574 377.094 241.509C383.685 226.444 386.981 208.555 386.981 189.253C386.981 146.882 372.386 114.399 344.14 92.7426C315.893 71.0867 275.406 60.2588 223.62 60.2588C199.61 60.2588 177.013 62.6127 157.24 67.7913C137.467 72.4991 120.048 80.5023 105.454 90.8595C90.8598 101.217 79.561 114.869 72.0285 130.876C64.0253 146.882 60.259 166.655 60.259 189.253C60.259 227.386 72.0285 257.987 95.5676 279.172C118.165 299.886 150.649 312.597 191.607 316.834V377.565H82.8565C75.324 377.565 69.2039 383.685 69.2039 391.217V424.172C69.2039 431.704 75.324 437.825 82.8565 437.825H363.912C371.445 437.825 377.565 431.704 377.565 424.172V391.217C377.565 383.214 371.445 377.094 363.912 377.094ZM223.62 130.405C260.341 130.405 287.175 135.113 303.182 144.999C318.717 154.415 326.721 169.009 326.721 189.253C326.721 200.081 324.367 209.496 319.188 217.029C314.48 224.561 307.419 230.681 298.474 235.389C289.529 240.097 278.701 243.392 265.99 245.746C253.279 248.1 239.156 249.042 223.62 249.042C187.841 249.042 161.477 243.863 144.999 233.977C128.993 224.09 120.99 209.496 120.99 189.723C120.99 177.954 123.344 168.538 128.522 161.006C133.701 153.473 140.762 147.353 149.707 143.116C159.123 138.408 169.951 135.584 182.662 133.701C194.902 131.347 209.026 130.405 223.62 130.405Z" fill="white"/>
<path d="M446.3 30.1299C446.3 46.6073 432.647 60.2599 416.17 60.2599C399.693 60.2599 386.04 46.6073 386.04 30.1299C386.04 13.6526 399.693 0 416.17 0C432.647 0.47078 446.3 13.6526 446.3 30.1299Z" fill="white"/>
</svg>
