<svg xmlns="http://www.w3.org/2000/svg" xmlns:xlink="http://www.w3.org/1999/xlink"><defs><clipPath id="clip0_2_177"><path fill="#fff" d="M0 0h54v54H0z"/></clipPath></defs><symbol id="advantages-1" viewBox="0 0 63 44"><path d="M57.019 1H5.199A4.293 4.293 0 001 5.41v33.508a3.959 3.959 0 004.198 4h51.82a3.96 3.96 0 004.205-4V5.41A4.306 4.306 0 0057.02 1z" stroke="#0264FA" stroke-width="2" stroke-linecap="round" stroke-linejoin="round"/><path d="M31.146 8.853h14.401v14.41M31.146 35.052H16.745v-14.41m0 14.41l28.802-26.2" stroke="#0264FA" stroke-width="2" stroke-linecap="round" stroke-linejoin="round"/></symbol><symbol id="advantages-2" viewBox="0 0 55 56"><path d="M17.38 34.461a.933.933 0 001.222-.502l1.316-3.159h4.978l1.316 3.16a.933.933 0 001.723-.72l-4.667-11.2a.933.933 0 00-1.723 0l-4.666 11.2a.933.933 0 00.502 1.221zm5.027-9.634l1.71 4.106h-3.421l1.71-4.106z" fill="#0264FA"/><path fill-rule="evenodd" clip-rule="evenodd" d="M29.873 32.667a.933.933 0 100 1.866h5.6a.933.933 0 000-1.866h-1.866v-9.334h1.867a.933.933 0 000-1.866h-5.6a.933.933 0 100 1.866h1.866v9.334h-1.866z" fill="#0264FA"/><path d="M.007 41.067A3.733 3.733 0 003.74 44.8a3.69 3.69 0 001.365-.267c2.206 1.69 5.32 2.57 9.146 2.57.577 0 1.176-.027 1.784-.066C18.745 52.576 22.655 56 27.073 56s8.328-3.424 11.04-8.96c.608.04 1.207.066 1.783.066 3.827 0 6.94-.88 9.147-2.57.434.173.897.263 1.364.264a3.733 3.733 0 002.039-6.853c.13-3.006-1.031-6.416-3.396-9.947 2.365-3.53 3.527-6.94 3.396-9.947a3.725 3.725 0 00-3.412-6.584c-2.536-1.94-6.28-2.8-10.92-2.498C35.405 3.428 31.493 0 27.074 0c-4.42 0-8.333 3.428-11.044 8.971-4.638-.3-8.38.56-10.92 2.498a3.726 3.726 0 00-3.412 6.585c-.129 3.004 1.034 6.414 3.4 9.946-2.366 3.53-3.529 6.941-3.397 9.947a3.727 3.727 0 00-1.694 3.12zm1.866 0a1.867 1.867 0 113.734 0 1.867 1.867 0 01-3.734 0zM17.19 10.939c2.484.297 4.932.847 7.306 1.64a51.957 51.957 0 00-9.506 5.49 36.733 36.733 0 012.2-7.13zm21.968 7.13a51.847 51.847 0 00-4.617-3.002 54.243 54.243 0 00-4.88-2.488 36.896 36.896 0 017.3-1.64 36.737 36.737 0 012.197 7.13zm-2.199 26.992a36.905 36.905 0 01-7.306-1.64 51.957 51.957 0 009.506-5.49 36.729 36.729 0 01-2.2 7.13zm-3.351-28.377a49.188 49.188 0 016.02 4.085c.343 2.395.514 4.812.513 7.231.002 2.42-.17 4.836-.512 7.23a49.224 49.224 0 01-6.021 4.086 50.161 50.161 0 01-6.534 3.171 50.114 50.114 0 01-6.533-3.173 49.199 49.199 0 01-6.02-4.085 51.272 51.272 0 010-14.461 49.22 49.22 0 016.02-4.084 50.165 50.165 0 016.539-3.173 50.13 50.13 0 016.528 3.173zm8.12 5.85A37.013 37.013 0 0146.773 28a37.01 37.01 0 01-5.04 5.467A54.15 54.15 0 0042.007 28c0-1.826-.091-3.65-.275-5.466h-.005zM12.42 33.466A36.907 36.907 0 017.374 28a37.008 37.008 0 015.04-5.466 54.392 54.392 0 000 10.933h.006zm7.192 7.466a54.216 54.216 0 004.88 2.489 36.9 36.9 0 01-7.299 1.64 36.733 36.733 0 01-2.199-7.131 51.869 51.869 0 004.613 3.002h.005zm7.461 13.2c-3.505 0-6.69-2.78-9.04-7.29a41.034 41.034 0 009.04-2.356 41.01 41.01 0 009.044 2.356c-2.353 4.51-5.538 7.29-9.044 7.29zm23.334-11.2a1.867 1.867 0 110-3.733 1.867 1.867 0 010 3.733zm.196-5.58c-.067 0-.129-.02-.196-.02a3.733 3.733 0 00-3.734 3.734c.004.834.29 1.643.811 2.295-2.032 1.34-5 1.978-8.553 1.845a40.534 40.534 0 002.444-8.984 40.798 40.798 0 006.512-6.595 15.627 15.627 0 012.716 7.725zm1.67-22.42a1.867 1.867 0 11-3.733 0 1.867 1.867 0 013.733 0zm-4.789-2.295a3.698 3.698 0 00-.81 2.295 3.733 3.733 0 003.733 3.734c.067 0 .13-.016.196-.02a15.621 15.621 0 01-2.716 7.725 40.804 40.804 0 00-6.513-6.595 40.507 40.507 0 00-2.447-8.984c3.557-.134 6.526.5 8.557 1.845zm-20.41-10.77c3.505 0 6.69 2.78 9.04 7.29a41.034 41.034 0 00-9.036 2.356 41.005 41.005 0 00-9.044-2.356c2.35-4.51 5.534-7.29 9.04-7.29zM3.74 13.067a1.867 1.867 0 110 3.733 1.867 1.867 0 010-3.733zm-.196 5.58c.066 0 .129.02.196.02a3.733 3.733 0 003.733-3.734 3.696 3.696 0 00-.81-2.295c2.031-1.34 4.998-1.977 8.553-1.845a40.54 40.54 0 00-2.444 8.984 40.835 40.835 0 00-6.512 6.594 15.612 15.612 0 01-2.716-7.724zM6.26 29.63a40.888 40.888 0 006.514 6.594 40.537 40.537 0 002.446 8.985c-3.552.134-6.521-.505-8.554-1.846.52-.652.805-1.461.807-2.295a3.733 3.733 0 00-3.733-3.734c-.067 0-.13.017-.196.02A15.619 15.619 0 016.26 29.63z" fill="#0264FA"/></symbol><symbol id="advantages-3" viewBox="0 0 54 54"><path d="M51.91 20.04a6.93 6.93 0 00-6.036-7.946 6.935 6.935 0 00-6.587-8.074A6.93 6.93 0 0027 3.454a6.93 6.93 0 00-12.289.566 6.936 6.936 0 00-6.586 8.073A6.93 6.93 0 002.09 20.04a6.905 6.905 0 00-.54 9.305A7.786 7.786 0 000 34.027a7.95 7.95 0 004.075 6.914 7.954 7.954 0 006.418 6.901A8.88 8.88 0 0018.97 54 8.875 8.875 0 0027 49.334a9.06 9.06 0 0016.507-1.492 7.955 7.955 0 006.418-6.9A7.95 7.95 0 0054 34.026a7.786 7.786 0 00-1.546-4.68 6.905 6.905 0 00-.54-9.304l-.005-.004zM18.97 52.2a7.08 7.08 0 01-6.896-5.38.9.9 0 00-.779-.678 6.134 6.134 0 01-5.461-5.808.9.9 0 00-.516-.778A6.06 6.06 0 011.8 34.027a5.978 5.978 0 011.605-4.103.9.9 0 00-.045-1.274 5.084 5.084 0 01.278-7.578.9.9 0 00.31-.888 5.647 5.647 0 01-.141-1.215 5.13 5.13 0 015.124-5.123c.07-.003.141 0 .211.009a.9.9 0 00.99-1.214 4.691 4.691 0 01-.3-1.702 5.13 5.13 0 015.122-5.123c.073-.003.146 0 .22.008a.9.9 0 00.994-.598 5.078 5.078 0 014.81-3.426A5.13 5.13 0 0126.1 6.368v39.498c-.18 3.612-3.24 6.334-7.13 6.334zm31.625-22.276a5.977 5.977 0 011.605 4.103 6.06 6.06 0 01-3.518 5.529.9.9 0 00-.516.779 6.134 6.134 0 01-5.461 5.807.9.9 0 00-.779.678 7.079 7.079 0 01-6.895 5.38c-3.891 0-6.951-2.722-7.131-6.334V41.4h3.6a.9.9 0 01.9.9v1.066a2.7 2.7 0 101.8 0V42.3a2.7 2.7 0 00-2.7-2.7h-3.6V36h9.166a2.7 2.7 0 100-1.8H27.9v-3.6H36a.9.9 0 000-1.8h-8.1v-3.6h13.666a2.7 2.7 0 100-1.8H27.9v-3.6h9.166a2.7 2.7 0 100-1.8H27.9v-3.6h3.6a2.7 2.7 0 002.7-2.7v-1.066a2.7 2.7 0 10-1.8 0V11.7a.9.9 0 01-.9.9h-3.6V6.368A5.13 5.13 0 0133.023 1.8a5.078 5.078 0 014.81 3.426.9.9 0 00.995.598.822.822 0 01.133-.01 5.15 5.15 0 015.208 5.125 4.689 4.689 0 01-.3 1.702.9.9 0 00.99 1.214 1.1 1.1 0 01.211-.008 5.13 5.13 0 015.124 5.122c-.003.41-.05.817-.141 1.215a.9.9 0 00.31.888 5.085 5.085 0 01.278 7.578.9.9 0 00-.046 1.274zM34.2 45.9a.9.9 0 11-1.8 0 .9.9 0 011.8 0zm4.5-10.8a.9.9 0 111.8 0 .9.9 0 01-1.8 0zm4.5-10.8a.9.9 0 111.8 0 .9.9 0 01-1.8 0zm-4.5-5.4a.9.9 0 111.8 0 .9.9 0 01-1.8 0zM32.4 8.1a.9.9 0 111.8 0 .9.9 0 01-1.8 0z" fill="#0264FA"/><path d="M15.3 37.8a.9.9 0 000 1.8 3.6 3.6 0 013.6 3.6.9.9 0 001.8 0 5.405 5.405 0 00-5.4-5.4zm1.8-15.3a.9.9 0 100 1.8 3.6 3.6 0 013.6 3.6.9.9 0 101.8 0 5.406 5.406 0 00-5.4-5.4zm-4.5 5.4a5.406 5.406 0 00-5.4 5.4.9.9 0 001.8 0 3.6 3.6 0 013.6-3.6.9.9 0 100-1.8zm2.7-10.8a3.6 3.6 0 013.6-3.6.9.9 0 100-1.8 5.405 5.405 0 00-5.4 5.4.9.9 0 101.8 0z" fill="#0264FA"/></symbol><symbol id="advantages-4" viewBox="0 0 81 91"><rect x="1" y="40.5" width="79" height="9" rx="4.5" stroke="#0264FA" stroke-width="2"/><path d="M41 1a1 1 0 10-2 0h2zm-1.707 30.707a1 1 0 001.414 0l6.364-6.364a1 1 0 00-1.414-1.414L40 29.586l-5.657-5.657a1 1 0 00-1.414 1.414l6.364 6.364zM40 1h-1v30h2V1h-1zm-1 88.5a1 1 0 102 0h-2zm1.707-30.707a1 1 0 00-1.414 0l-6.364 6.364a1 1 0 001.414 1.414L40 60.914l5.657 5.657a1 1 0 001.414-1.414l-6.364-6.364zM40 89.5h1v-30h-2v30h1z" fill="#0264FA"/></symbol><symbol id="advantages-5" viewBox="0 0 54 54"><g clip-path="url(#clip0_2_177)" fill="#0264FA"><path d="M25.85 4.535L10.051 17.202H5.632C2.521 17.212 0 19.733 0 22.834v8.322a5.63 5.63 0 005.632 5.632h4.42L25.85 49.465c2.943 2.362 7.31.274 7.31-3.512V8.037c0-3.765-4.367-5.864-7.31-3.502zM2.204 31.166v-8.321a3.42 3.42 0 013.428-3.428h3.713v15.187H5.632a3.443 3.443 0 01-3.428-3.438zm28.751 14.797c0 1.94-2.225 2.985-3.723 1.793L11.538 35.163V18.837L27.232 6.254c1.498-1.202 3.734-.147 3.734 1.793v37.916h-.01zm16.316-35.226a1.101 1.101 0 00-1.56 0 1.101 1.101 0 000 1.56c8.11 8.132 8.11 21.295 0 29.416a1.101 1.101 0 000 1.56 1.101 1.101 0 001.56 0c8.975-8.996 8.975-23.55 0-32.536z"/><path d="M42.883 15.114a1.101 1.101 0 00-1.56 0 1.101 1.101 0 000 1.56c5.695 5.706 5.695 14.945 0 20.651a1.101 1.101 0 000 1.561 1.101 1.101 0 001.56 0c6.56-6.57 6.56-17.202 0-23.772z"/><path d="M38.507 19.501a1.111 1.111 0 00-1.561.032 1.102 1.102 0 000 1.53c3.28 3.28 3.28 8.605 0 11.896a1.11 1.11 0 00.031 1.56 1.102 1.102 0 001.53 0c4.145-4.155 4.145-10.873 0-15.018z"/></g></symbol><symbol id="advantages-6" viewBox="0 0 71 31"><path d="M3.794 0h57.883a3.803 3.803 0 013.794 3.794v23.294a3.803 3.803 0 01-3.794 3.795H3.794A3.803 3.803 0 010 27.089V3.793A3.803 3.803 0 013.794 0zm57.883 1.942H3.794a1.86 1.86 0 00-1.852 1.852v23.294a1.86 1.86 0 001.852 1.853h57.883a1.86 1.86 0 001.853-1.852V3.793a1.86 1.86 0 00-1.853-1.852z" fill="#0264FA"/><path d="M64.5 7.098h3.072A3.439 3.439 0 0171 10.526v9.83a3.44 3.44 0 01-3.428 3.429H64.5a.97.97 0 01-.97-.971V8.069a.97.97 0 01.97-.971zm3.072 1.941h-2.1v12.804h2.1c.818 0 1.487-.67 1.487-1.486v-9.83c0-.817-.67-1.488-1.487-1.488zM51.75 10.168l-5.908 5.161 3.008 1.648a.97.97 0 01.384 1.318c-.633 1.16-1.28 2.315-1.919 3.472l6.142-5.405-3.19-1.642a.971.971 0 01-.346-1.425l1.829-3.127zm3.128-5.302a.971.971 0 011.536 1.164l-4.351 7.434 3.481 1.796a.97.97 0 01.26 1.621l-11.352 9.99a.971.971 0 01-1.144.152c-.758-.418-.437-1.35-.38-1.318l4.137-7.495-3.317-1.82a.97.97 0 01-.224-1.609l11.354-9.915zm-45.269 6.48a.97.97 0 000 1.942h5.949a.97.97 0 000-1.942h-5.95zm0 6.333a.97.97 0 000 1.941h5.949a.97.97 0 000-1.941h-5.95z" fill="#0264FA"/><path d="M11.451 4.122h2.265a2.824 2.824 0 012.813 2.813v16.974a2.824 2.824 0 01-2.813 2.813H11.45a2.824 2.824 0 01-2.813-2.813V6.935a2.824 2.824 0 012.813-2.813zm2.265 1.941H11.45a.873.873 0 00-.871.872v16.974c0 .48.391.871.871.871h2.265c.48 0 .871-.391.871-.871V6.935a.873.873 0 00-.871-.872zm6.928 5.283a.97.97 0 000 1.942h5.949a.97.97 0 000-1.942h-5.95zm0 6.333a.97.97 0 000 1.941h5.949a.97.97 0 000-1.941h-5.95z" fill="#0264FA"/><path d="M22.486 4.122h2.265a2.824 2.824 0 012.813 2.813v16.974a2.824 2.824 0 01-2.813 2.813h-2.265a2.824 2.824 0 01-2.813-2.813V6.935a2.824 2.824 0 012.813-2.813zm2.265 1.941h-2.265a.873.873 0 00-.871.872v16.974c0 .48.391.871.871.871h2.265c.48 0 .871-.391.871-.871V6.935a.873.873 0 00-.871-.872zm6.927 5.283a.97.97 0 000 1.942h5.95a.97.97 0 000-1.942h-5.95zm0 6.333a.97.97 0 000 1.941h5.95a.97.97 0 000-1.941h-5.95z" fill="#0264FA"/><path d="M33.52 4.122h2.265a2.824 2.824 0 012.813 2.813v16.974a2.824 2.824 0 01-2.813 2.813h-2.264a2.824 2.824 0 01-2.813-2.813V6.935a2.824 2.824 0 012.813-2.813zm2.265 1.941h-2.264a.873.873 0 00-.872.872v16.974c0 .48.392.871.872.871h2.264c.48 0 .872-.391.872-.871V6.935a.873.873 0 00-.871-.872z" fill="#0264FA"/></symbol><symbol id="arrow-right" viewBox="0 0 35 8"><path d="M34.354 4.036a.5.5 0 000-.708L31.172.146a.5.5 0 10-.707.708l2.828 2.828-2.828 2.828a.5.5 0 10.707.708l3.182-3.182zM0 3.682v.5h34v-1H0v.5z" fill="#fff"/></symbol><symbol id="hero-title" viewBox="0 12.75 228.45 82.478"><path d="M0 48.5V13.15h3l13.4 22.6 13.1-22.6h2.95V48.5h-2.1V15.65L16.9 38.75h-1.1L2.1 15.65V48.5H0zm41.75 0V13.15h22.8v1.9h-20.7V30h18.6v1.9h-18.6v14.7h20.7v1.9h-22.8zm44.25.4q-5.35 0-8.87-2.32-3.53-2.33-5.3-6.33-1.78-4-1.88-8.95-.05-3.85.93-7.2.97-3.35 2.95-5.9 1.97-2.55 5-4 3.02-1.45 7.07-1.45 3 0 5.63.77 2.62.78 4.64 2.5 2.03 1.73 3.23 4.58h-2.5q-.9-2.05-2.68-3.4-1.77-1.35-3.92-2-2.15-.65-4.3-.65-3.65 0-6.28 1.33-2.62 1.32-4.3 3.64-1.67 2.33-2.45 5.28-.77 2.95-.77 6.25 0 4.35 1.45 8 1.45 3.65 4.52 5.85 3.08 2.2 7.88 2.2 4.05 0 6.87-1.68 2.83-1.67 4.36-4.69 1.52-3.03 1.57-7.03h-12.4v-1.85h14.3v1.95q0 4.45-1.8 7.87-1.8 3.43-5.12 5.33-3.33 1.9-7.83 1.9zm17.5-.4l13.9-35.35h2.35L133.8 48.5h-2.45l-3.2-8.15h-19.1l-3.15 8.15h-2.4m6.25-10h17.65l-8.8-22.85-8.85 22.85zm29.5 10V13.15H151q3.8 0 6.47 1.2 2.68 1.2 4.13 3.72 1.45 2.53 1.45 6.43t-1.73 6.45q-1.72 2.55-4.67 3.8T150 36h-8.65v12.5h-2.1m2.1-14.35h8.55q4.9 0 7.92-2.35 3.03-2.35 3.03-7.5 0-5-2.72-7.13-2.73-2.12-7.43-2.12h-9.35v19.1zM164.1 48.5L178 13.15h2.35L194.4 48.5h-2.45l-3.2-8.15h-19.1l-3.15 8.15h-2.4m6.25-10H188l-8.8-22.85-8.85 22.85zm29.5 10V13.15H212q5.45 0 9.1 2.23 3.65 2.22 5.5 6.19 1.85 3.98 1.85 9.28 0 5.2-1.85 9.17-1.85 3.98-5.52 6.23-3.68 2.25-9.08 2.25h-12.15m2.1-1.9h9.65q4.85 0 8.1-2t4.9-5.55q1.65-3.55 1.65-8.2 0-4.55-1.57-8.13-1.58-3.57-4.73-5.62-3.15-2.05-8-2.05h-10V46.6zM0 94.828v-35.35h11.75q3.8 0 6.48 1.2 2.67 1.2 4.12 3.72 1.45 2.53 1.45 6.43t-1.72 6.45q-1.73 2.55-4.68 3.8-2.95 1.25-6.65 1.25H2.1v12.5H0m2.1-14.35h8.55q4.9 0 7.93-2.35 3.02-2.35 3.02-7.5 0-5-2.72-7.13-2.73-2.12-7.43-2.12H2.1v19.1zm29.1 14.35v-35.35h12.85q2.75 0 5 .55t3.88 1.8q1.62 1.25 2.5 3.27.87 2.03.87 4.98 0 2.65-.97 4.7-.98 2.05-2.9 3.4-1.93 1.35-4.83 2l7.9 14.65h-2.4l-7.7-14.3H33.3v14.3h-2.1m2.1-16.15h9.35q2.2 0 4.25-.35t3.68-1.3q1.62-.95 2.57-2.68.95-1.72.95-4.42 0-3.4-1.4-5.25t-3.77-2.58q-2.38-.72-5.38-.72H33.3v17.3zm45.15 16.55q-5.45 0-9.12-2.35-3.68-2.35-5.53-6.42-1.85-4.08-1.85-9.28 0-5.2 1.85-9.3 1.85-4.1 5.53-6.45 3.67-2.35 9.12-2.35 5.45 0 9.1 2.38 3.65 2.37 5.5 6.44 1.85 4.08 1.85 9.28 0 5.15-1.85 9.25t-5.5 6.45q-3.65 2.35-9.1 2.35m0-1.8q4.8 0 7.95-2.18 3.15-2.17 4.7-5.87 1.55-3.7 1.55-8.2 0-3.35-.87-6.3-.88-2.95-2.63-5.2t-4.42-3.53q-2.68-1.27-6.28-1.27-4.8 0-7.97 2.22-3.18 2.23-4.75 5.93-1.58 3.7-1.58 8.15t1.6 8.15q1.6 3.7 4.8 5.9 3.2 2.2 7.9 2.2z" fill="#fff"/></symbol><symbol id="logo-cnews" viewBox="0 0 137 25"><path fill-rule="evenodd" clip-rule="evenodd" d="M95.647 1.352c-3.965.114-3.27 1.827-2.304 4.36l5.148 13.15 5.045-11.915c-1.661-4.297-1.713-5.108-4.879-5.585V.563h11.481v.799c-4.028.156-3.488 1.776-2.834 3.54l5.262 13.96c2.149-4.785 5.906-13.047 5.906-15.57-.001-1.774-1.661-1.774-3.01-1.93V.563h9.061v.799c-3.061.218-3.861 2.367-4.982 4.785l-8.376 18.673h-.747l-6.384-16.316-6.705 16.316h-.81l-.02-.01-7.723-19.172c-.965-2.304-1.557-4.13-4.453-4.296v-.8h11.325v.81zM78.583.013a7.96 7.96 0 013.155.456 7.77 7.77 0 014.515 4.308c.415.996.623 2.066.603 3.135h-15.56l-.228 2.678a9.686 9.686 0 00.353 4.006 9.505 9.505 0 001.951 3.51 9.606 9.606 0 007.13 3.27 7.518 7.518 0 003.602-.884 7.521 7.521 0 002.731-2.501l.799.59a11.928 11.928 0 01-4.121 4.413 11.668 11.668 0 01-5.75 1.816 11.39 11.39 0 01-8.147-3.571 11.348 11.348 0 01-2.4-3.85 11.58 11.58 0 01-.704-4.484c0-6.934 4.826-12.892 12.071-12.892zm50.913-.01a10.577 10.577 0 015.957 1.775l.156 4.774-1.172.208-.011.021c-.748-2.47-1.921-5.48-4.983-5.48a3.51 3.51 0 00-2.615 1.09 3.439 3.439 0 00-.747 1.235 3.684 3.684 0 00-.187 1.431c0 5.533 11.106 5.367 11.106 12.29 0 4.785-4.556 7.463-8.905 7.463a11.139 11.139 0 01-6.539-1.982l-.426-5.958 1.235-.218c.758 3.28 2.574 6.767 6.383 6.767a4.09 4.09 0 001.619-.29 3.87 3.87 0 001.37-.924c.384-.394.686-.872.883-1.39.197-.52.28-1.08.249-1.63 0-6.124-11.106-4.89-11.106-12.57 0-4.183 3.924-6.612 7.733-6.612zm-115.701 0c1.723 0 5.843.218 5.844 2.677a2.744 2.744 0 01-2.523 2.471c-1.878 0-3.81-3.487-6.498-3.487-4.286 0-6.33 4.992-6.33 8.636 0 6.923 4.722 11.324 10.025 11.324a8.837 8.837 0 005.522-2.087l.643.8a12.606 12.606 0 01-4.234 3.249 12.55 12.55 0 01-5.2 1.203l-.295.017C4.365 24.64 0 19.242 0 13.06 0 5.546 6.55.003 13.795.003zm43.438 0c6.436 0 6.757 5.314 6.757 8.48v9.56c0 4.4.219 4.836 4.184 5.418v.81H55.666v-.81c3.965-.592 4.13-1.235 4.183-5.418v-6.166c0-3.758.156-9.072-6.383-9.072a7.547 7.547 0 00-2.98.581 7.302 7.302 0 00-2.49 1.723v12.943c0 4.401.218 4.838 4.183 5.42v.809H39.682v-.81c3.965-.591 4.13-1.236 4.182-5.419V7.798c0-2.253.052-2.948-2.626-4.89l.011-.538L47.633.003l.59.208-.424 3.923C50.86 1.892 53.809.003 57.233.003zM30.62 4.155a7.787 7.787 0 017.784 7.784 7.788 7.788 0 01-7.784 7.785 7.788 7.788 0 01-7.785-7.785 7.788 7.788 0 017.785-7.784zm-1.556 1.037a3.11 3.11 0 00-3.115 3.114 3.11 3.11 0 003.114 3.115 3.11 3.11 0 003.114-3.115 3.11 3.11 0 00-3.113-3.114zm47.858-3.996c-3.062 0-4.889 3.021-5.48 5.7l10.307-.437c-.477-2.47-1.993-5.263-4.827-5.263z" fill="#fff"/></symbol><symbol id="logo-tecno" viewBox="0 0 137 28"><path d="M110.718 13.704c0-2.46.025-4.921 0-7.37-.052-3.194 2.657-6.299 6.201-6.312 4.635-.012 9.27-.025 13.905 0 3.043.013 5.675 2.384 6.099 5.424.051.335.077.683.077 1.018v14.609c0 2.911-2.08 5.552-4.905 6.17a7.953 7.953 0 01-1.656.18c-4.468.014-8.923.04-13.392 0-3.736-.025-6.368-3.155-6.329-6.299.025-2.473 0-4.947 0-7.42zm7.203.038v6.622c0 1.623 1.476 3.311 3.081 3.375a67.91 67.91 0 005.611 0c1.682-.064 3.171-1.7 3.171-3.388.013-4.431.013-8.863 0-13.295 0-1.739-1.643-3.388-3.377-3.414-1.72-.025-3.441-.025-5.161 0-1.733.026-3.338 1.7-3.338 3.44v6.673l.013-.013zM81.04 27.389v-.438c0-8.786 0-17.572-.013-26.371 0-.502.167-.58.604-.58 6.42 0 12.84.039 19.259 0a6.456 6.456 0 016.394 5.385c.051.31.051.619.051.928v20.535c0 .438-.089.592-.552.58a241.16 241.16 0 00-6.098 0c-.463 0-.527-.155-.527-.567V7.446c0-1.97-1.13-3.388-3.03-3.787a3.094 3.094 0 00-.603-.052c-2.568 0-5.15 0-7.717-.013-.475 0-.604.13-.604.593.013 7.55 0 15.086 0 22.635v.541h-7.19l.026.026zM52.053 3.62h-.59c-3.596 0-7.191.038-10.786-.014-2.106-.025-4.109 1.624-3.813 4.406.192 1.868 1.142 3.04 2.696 3.44.398.103.822.155 1.232.155h11.222V15.2H37.48c-.655 0-.668 0-.655.67.013 1.571 0 3.143.077 4.702.077 1.584 1.58 3.04 3.159 3.169.475.039.963.052 1.438.064h10.528v3.582c-.128 0-.27.025-.398.025-5.251 0-10.515.04-15.767-.012-3.158-.039-5.572-2.41-6.073-5.192a6.345 6.345 0 01-.09-1.108c0-4.921.026-9.83-.013-14.75-.051-3.221 2.632-6.313 6.15-6.326 5.252-.026 10.516 0 15.767-.013.347 0 .45.103.45.45-.026 1.044 0 2.075 0 3.17V3.62zm25.6 23.807H61.925c-3.172 0-5.65-1.932-6.42-5.024a4.916 4.916 0 01-.142-1.147V6.184c0-2.822 2.286-5.566 5.072-6.042.45-.078.925-.13 1.387-.13 5.11 0 10.233 0 15.343-.012.45 0 .59.116.565.567-.038.992 0 1.984 0 3.053H66.264c-2.118 0-3.71 1.585-3.71 3.697 0 4.187.051 8.374-.026 12.548-.038 1.945 1.361 3.968 3.993 3.942 3.505-.026 7.01 0 10.516 0 .834 0 .68 0 .693.709v2.757c0 .025-.026.051-.051.141l-.026.013zM.026 3.622V.054C.193.04.36.015.514.015h25.204c.488 0 .616.155.59.618-.038.85-.026 1.714 0 2.564 0 .348-.115.451-.462.451-1.797-.013-3.595 0-5.393 0-2.093 0-3.685 1.585-3.685 3.672v20.122h-.526c-2.029 0-4.057-.013-6.086 0-.475 0-.59-.116-.59-.592.012-7.485 0-14.97 0-22.442v-.283c.05-.387-.116-.503-.501-.503-2.183.013-4.366 0-6.561 0H0h.026z" fill="#fff"/></symbol></svg>